<svg width="21" height="20" viewBox="0 0 21 20" fill="none" xmlns="http://www.w3.org/2000/svg">
<path d="M12.4189 5.72999C12.2805 5.74722 12.1235 5.80894 12.0179 5.89871L9.15096 8.70478L11.5881 11.0784L14.4599 8.28038C14.69 8.00186 14.7044 7.58067 14.4973 7.28211C14.3543 7.07612 13.3053 6.05941 13.0863 5.89871C12.8841 5.75083 12.6721 5.69833 12.4193 5.72999H12.4189ZM8.71704 9.11956L0.131883 17.5045C-0.0435757 17.8143 -0.0448084 18.1041 0.132294 18.411C0.265429 18.6419 1.39256 19.7407 1.62924 19.871C1.96413 20.0549 2.31752 20.0465 2.62775 19.8189L11.1562 11.4988L8.71663 9.11996L8.71704 9.11956ZM15.382 14.3983C15.4268 14.4015 15.4654 14.4051 15.5061 14.3803C15.569 14.3418 15.7005 13.7984 15.7617 13.6693C15.8919 13.3948 16.141 13.1259 16.42 12.9912C16.5605 12.9235 17.52 12.7452 17.1271 12.556C16.7454 12.3721 16.427 12.4378 16.0571 12.0799C15.6927 11.7277 15.7411 11.4027 15.5484 11.0159C15.4843 10.8873 15.4264 10.858 15.3627 10.9987C15.0664 11.6527 15.156 12.0427 14.3556 12.3781C14.2615 12.4174 13.6665 12.5841 13.6587 12.6193C13.6467 12.6738 13.6566 12.7031 13.7006 12.738C13.7823 12.8029 14.2475 12.8923 14.4114 12.9644C15.0574 13.2485 15.1983 13.7843 15.3816 14.3983H15.382Z" fill="white"/>
<path d="M8.98374 0C9.29275 0.618362 9.31247 1.23312 9.80269 1.78095C10.4482 2.5015 10.9454 2.35683 11.6908 2.69947C11.8852 2.78884 11.9259 2.89304 11.7192 3.00765C11.4722 3.14511 10.9664 3.21524 10.666 3.34028C10.0188 3.60959 9.60134 4.06083 9.3511 4.69763C9.28124 4.87557 9.11236 5.60694 9.00758 5.68228C8.96854 5.71033 8.93238 5.72797 8.88225 5.72236C8.8202 5.71715 8.81404 5.69711 8.7861 5.65223C8.65995 5.44664 8.56667 4.8924 8.45203 4.61868C8.20425 4.02717 7.81347 3.61079 7.20779 3.3527C6.89796 3.22045 6.29269 3.12948 6.05929 2.99283C6.01327 2.96598 5.99273 2.95996 5.98738 2.89905C5.98204 2.85016 6.00012 2.81489 6.02848 2.77682C6.10532 2.67463 6.88153 2.5019 7.06808 2.43097C7.68896 2.19412 8.14877 1.78736 8.41751 1.18743C8.59009 0.802308 8.63324 0.353865 8.86129 0.000400753H8.98416L8.98374 0Z" fill="white"/>
<path d="M21 7.83912V7.95894C20.2152 8.22184 19.5359 8.33284 19.1604 9.14437C19.0917 9.29265 18.897 10.0573 18.8053 10.0785C18.7182 10.0745 18.6726 9.98475 18.6414 9.91903C18.5041 9.62928 18.4811 9.27662 18.3011 8.97084C17.9313 8.34326 17.273 8.16533 16.6012 7.99902L16.5478 7.89803L16.5987 7.79543C17.2989 7.60387 17.9852 7.42714 18.3414 6.74546C18.4939 6.45411 18.5251 6.08342 18.6595 5.81611C18.7232 5.68907 18.814 5.67465 18.8855 5.80088C19.0268 6.05136 19.0601 6.48778 19.229 6.78594C19.6251 7.48605 20.3027 7.57742 21 7.83832V7.83912Z" fill="white"/>
<path d="M8.71709 9.11954L11.1567 11.4984L2.62821 19.8185C2.31798 20.0461 1.96459 20.0545 1.6297 19.8706C1.39302 19.7407 0.265889 18.6414 0.132754 18.4106C-0.0447598 18.1036 -0.0431162 17.8139 0.132343 17.5041L8.7175 9.11914L8.71709 9.11954Z" fill="white"/>
<path d="M12.419 5.72996C12.6717 5.6983 12.8837 5.7504 13.0859 5.89868C13.3049 6.05938 14.3543 7.07609 14.4969 7.28208C14.704 7.58024 14.6897 8.00143 14.4595 8.28036L11.5877 11.0784L9.15057 8.70476L12.0175 5.89868C12.1235 5.80891 12.2801 5.7476 12.4185 5.72996H12.419Z" fill="white"/>
<path d="M15.382 14.3983C15.1988 13.7843 15.0578 13.2481 14.4119 12.9644C14.2479 12.8923 13.7824 12.8029 13.701 12.738C13.6566 12.7027 13.6472 12.6739 13.6591 12.6194C13.6669 12.5841 14.2619 12.4178 14.356 12.3781C15.1564 12.0427 15.0669 11.6527 15.3631 10.9987C15.4268 10.8584 15.4848 10.8877 15.5489 11.0159C15.7416 11.4027 15.6931 11.7273 16.0576 12.0799C16.4278 12.4378 16.7458 12.3721 17.1276 12.556C17.5204 12.7456 16.5613 12.9235 16.4204 12.9913C16.1414 13.1259 15.8924 13.3948 15.7621 13.6693C15.7009 13.7984 15.5698 14.3414 15.5065 14.3803C15.4659 14.4051 15.4272 14.4015 15.3824 14.3983H15.382Z" fill="white"/>
</svg>
