<svg xmlns="http://www.w3.org/2000/svg" width="25" height="24" fill="none"><g fill="#fff" clip-path="url(#a)"><path fill-rule="evenodd" d="M12.5 22.5a10.5 10.5 0 1 0 0-21 10.5 10.5 0 0 0 0 21Zm0 1.5a12 12 0 1 0 0-24 12 12 0 0 0 0 24Z" clip-rule="evenodd"/><path fill-rule="evenodd" d="M18.995 14.25a1.5 1.5 0 0 1 0 1.5A7.497 7.497 0 0 1 8.75 18.495a7.496 7.496 0 0 1-2.745-2.745A1.5 1.5 0 0 1 7.3 13.5h10.395a1.5 1.5 0 0 1 1.3.75Z" clip-rule="evenodd"/><path d="M11 9.75c0 1.242-.672 0-1.5 0S8 10.992 8 9.75 8.672 7.5 9.5 7.5 11 8.508 11 9.75Zm6 0c0 1.242-.672 0-1.5 0s-1.5 1.242-1.5 0 .672-2.25 1.5-2.25S17 8.508 17 9.75Z"/></g><defs><clipPath id="a"><path fill="#fff" d="M.5 0h24v24H.5z"/></clipPath></defs></svg>