<svg width="15" height="15" viewBox="0 0 15 15" fill="none" xmlns="http://www.w3.org/2000/svg">
<g clip-path="url(#clip0_5660_794)">
<path fill-rule="evenodd" clip-rule="evenodd" d="M7.5 14.0625C9.24048 14.0625 10.9097 13.3711 12.1404 12.1404C13.3711 10.9097 14.0625 9.24048 14.0625 7.5C14.0625 5.75952 13.3711 4.09032 12.1404 2.85961C10.9097 1.6289 9.24048 0.9375 7.5 0.9375C5.75952 0.9375 4.09032 1.6289 2.85961 2.85961C1.6289 4.09032 0.9375 5.75952 0.9375 7.5C0.9375 9.24048 1.6289 10.9097 2.85961 12.1404C4.09032 13.3711 5.75952 14.0625 7.5 14.0625ZM7.5 15C9.48912 15 11.3968 14.2098 12.8033 12.8033C14.2098 11.3968 15 9.48912 15 7.5C15 5.51088 14.2098 3.60322 12.8033 2.1967C11.3968 0.790176 9.48912 0 7.5 0C5.51088 0 3.60322 0.790176 2.1967 2.1967C0.790176 3.60322 0 5.51088 0 7.5C0 9.48912 0.790176 11.3968 2.1967 12.8033C3.60322 14.2098 5.51088 15 7.5 15Z" fill="white"/>
<path fill-rule="evenodd" clip-rule="evenodd" d="M4.35643 4.35555C4.39997 4.31189 4.4517 4.27726 4.50865 4.25363C4.5656 4.23 4.62665 4.21783 4.68831 4.21783C4.74996 4.21783 4.81102 4.23 4.86796 4.25363C4.92491 4.27726 4.97664 4.31189 5.02018 4.35555L7.50081 6.83711L9.98143 4.35555C10.025 4.31196 10.0768 4.27739 10.1337 4.25381C10.1906 4.23022 10.2517 4.21808 10.3133 4.21808C10.3749 4.21808 10.436 4.23022 10.4929 4.25381C10.5499 4.27739 10.6016 4.31196 10.6452 4.35555C10.6888 4.39913 10.7233 4.45087 10.7469 4.50781C10.7705 4.56476 10.7826 4.62579 10.7826 4.68742C10.7826 4.74906 10.7705 4.81009 10.7469 4.86703C10.7233 4.92398 10.6888 4.97571 10.6452 5.0193L8.16362 7.49992L10.6452 9.98055C10.6888 10.0241 10.7233 10.0759 10.7469 10.1328C10.7705 10.1898 10.7826 10.2508 10.7826 10.3124C10.7826 10.3741 10.7705 10.4351 10.7469 10.492C10.7233 10.549 10.6888 10.6007 10.6452 10.6443C10.6016 10.6879 10.5499 10.7225 10.4929 10.746C10.436 10.7696 10.3749 10.7818 10.3133 10.7818C10.2517 10.7818 10.1906 10.7696 10.1337 10.746C10.0768 10.7225 10.025 10.6879 9.98143 10.6443L7.50081 8.16273L5.02018 10.6443C4.9766 10.6879 4.92486 10.7225 4.86792 10.746C4.81097 10.7696 4.74994 10.7818 4.68831 10.7818C4.62667 10.7818 4.56564 10.7696 4.5087 10.746C4.45175 10.7225 4.40001 10.6879 4.35643 10.6443C4.31285 10.6007 4.27828 10.549 4.25469 10.492C4.2311 10.4351 4.21896 10.3741 4.21896 10.3124C4.21896 10.2508 4.2311 10.1898 4.25469 10.1328C4.27828 10.0759 4.31285 10.0241 4.35643 9.98055L6.83799 7.49992L4.35643 5.0193C4.31278 4.97575 4.27815 4.92403 4.25451 4.86708C4.23088 4.81013 4.21872 4.74908 4.21872 4.68742C4.21872 4.62577 4.23088 4.56471 4.25451 4.50777C4.27815 4.45082 4.31278 4.39909 4.35643 4.35555Z" fill="white"/>
</g>
<defs>
<clipPath id="clip0_5660_794">
<rect width="15" height="15" fill="white"/>
</clipPath>
</defs>
</svg>
