<svg xmlns="http://www.w3.org/2000/svg" viewBox="0 0 24 22" width="24" height="22"><defs></defs><g transform="matrix(1,0,0,1,0.5,-0.5)">
<g>
	<g transform="matrix(1,0,0,1,12,11)">
		<g>
			<g>
				<path d="M-8.483,5.841C-8.3273,5.997299 -8.208,6.186001 -8.13359,6.3937 C-8.05918,6.6014 -8.03149,6.822901 -8.0525,7.0425 C-8.15792,8.058901 -8.35779,9.0632 -8.6495,10.0425 C-6.557,9.558001 -5.279,8.997 -4.6985,8.702999 C-4.36924,8.5362 -3.99007,8.4967 -3.6335,8.591999 C-2.6113,8.8645 -1.5579,9.001699 -0.5,9 C5.493999,9 10,4.789499 10,0 C10,-4.788 5.493999,-9 -0.5,-9 C-6.494,-9 -11,-4.788 -11,0 C-11,2.202 -10.0745,4.245001 -8.483,5.841 C-8.483,5.841 -8.483,5.841 -8.483,5.841 ZM-9.2225,11.6985C-9.5779,11.768999 -9.93445,11.8335 -10.292,11.892 C-10.592,11.940001 -10.82,11.628 -10.7015,11.349001 C-10.56831,11.034901 -10.44624,10.7162 -10.3355,10.393499 C-10.3355,10.393499 -10.331,10.3785 -10.331,10.3785 C-9.959,9.2985 -9.656,8.056499 -9.545,6.9 C-11.3855,5.055 -12.5,2.64 -12.5,0 C-12.5,-5.799 -7.127,-10.5 -0.5,-10.5 C6.127001,-10.5 11.5,-5.799 11.5,0 C11.5,5.799 6.127001,10.5 -0.5,10.5 C-1.6885,10.5016 -2.8721,10.3473 -4.0205,10.041 C-4.8005,10.435499 -6.479,11.153999 -9.2225,11.6985 C-9.2225,11.6985 -9.2225,11.6985 -9.2225,11.6985 Z" fill="#ffffff"/>
			</g>
			<g>
				<path d="M-6.5,-3.75C-6.5,-3.94891 -6.42098,-4.13968 -6.28033,-4.28033 C-6.13968,-4.42098 -5.94891,-4.5 -5.75,-4.5 C-5.75,-4.5 4.75,-4.5 4.75,-4.5 C4.9489,-4.5 5.1397,-4.42098 5.2803,-4.28033 C5.421,-4.13968 5.5,-3.94891 5.5,-3.75 C5.5,-3.55109 5.421,-3.36032 5.2803,-3.21967 C5.1397,-3.07902 4.9489,-3 4.75,-3 C4.75,-3 -5.75,-3 -5.75,-3 C-5.94891,-3 -6.13968,-3.07902 -6.28033,-3.21967 C-6.42098,-3.36032 -6.5,-3.55109 -6.5,-3.75 C-6.5,-3.75 -6.5,-3.75 -6.5,-3.75 ZM-6.5,0C-6.5,-0.1989 -6.42098,-0.3897 -6.28033,-0.5303 C-6.13968,-0.671 -5.94891,-0.75 -5.75,-0.75 C-5.75,-0.75 4.75,-0.75 4.75,-0.75 C4.9489,-0.75 5.1397,-0.671 5.2803,-0.5303 C5.421,-0.3897 5.5,-0.1989 5.5,0 C5.5,0.1989 5.421,0.3897 5.2803,0.5303 C5.1397,0.671 4.9489,0.75 4.75,0.75 C4.75,0.75 -5.75,0.75 -5.75,0.75 C-5.94891,0.75 -6.13968,0.671 -6.28033,0.5303 C-6.42098,0.3897 -6.5,0.1989 -6.5,0 C-6.5,0 -6.5,0 -6.5,0 ZM-6.5,3.75C-6.5,3.5511 -6.42098,3.3603 -6.28033,3.2197 C-6.13968,3.079 -5.94891,3 -5.75,3 C-5.75,3 0.25,3 0.25,3 C0.4489,3 0.6397,3.079 0.7803,3.2197 C0.921,3.3603 1,3.5511 1,3.75 C1,3.9489 0.921,4.1397 0.7803,4.2803 C0.6397,4.421 0.4489,4.5 0.25,4.5 C0.25,4.5 -5.75,4.5 -5.75,4.5 C-5.94891,4.5 -6.13968,4.421 -6.28033,4.2803 C-6.42098,4.1397 -6.5,3.9489 -6.5,3.75 C-6.5,3.75 -6.5,3.75 -6.5,3.75 Z" fill="#ffffff"/>
			</g>
		</g>
	</g>
</g></g></svg>