<svg width="21" height="20" viewBox="0 0 21 20" fill="none" xmlns="http://www.w3.org/2000/svg">
<g clip-path="url(#clip0_5685_4101)">
<path fill-rule="evenodd" clip-rule="evenodd" d="M0.65625 12.9937C0.830298 12.9937 0.997218 13.0628 1.12029 13.1859C1.24336 13.3089 1.3125 13.4759 1.3125 13.6499V16.9312C1.3125 17.2792 1.45078 17.6131 1.69692 17.8592C1.94306 18.1054 2.2769 18.2437 2.625 18.2437H18.375C18.7231 18.2437 19.0569 18.1054 19.3031 17.8592C19.5492 17.6131 19.6875 17.2792 19.6875 16.9312V13.6499C19.6875 13.4759 19.7566 13.3089 19.8797 13.1859C20.0028 13.0628 20.1697 12.9937 20.3438 12.9937C20.5178 12.9937 20.6847 13.0628 20.8078 13.1859C20.9309 13.3089 21 13.4759 21 13.6499V16.9312C21 17.6273 20.7234 18.295 20.2312 18.7873C19.7389 19.2796 19.0712 19.5562 18.375 19.5562H2.625C1.92881 19.5562 1.26113 19.2796 0.768845 18.7873C0.276562 18.295 0 17.6273 0 16.9312V13.6499C0 13.4759 0.0691404 13.3089 0.192211 13.1859C0.315282 13.0628 0.482202 12.9937 0.65625 12.9937Z" fill="white"/>
<path fill-rule="evenodd" clip-rule="evenodd" d="M10.0362 15.5584C10.0972 15.6195 10.1696 15.668 10.2493 15.7011C10.329 15.7341 10.4145 15.7512 10.5008 15.7512C10.5871 15.7512 10.6726 15.7341 10.7523 15.7011C10.8321 15.668 10.9045 15.6195 10.9655 15.5584L14.903 11.6209C15.0262 11.4976 15.0954 11.3305 15.0954 11.1562C15.0954 10.982 15.0262 10.8149 14.903 10.6916C14.7797 10.5684 14.6126 10.4992 14.4383 10.4992C14.2641 10.4992 14.0969 10.5684 13.9737 10.6916L11.1571 13.5096V1.96875C11.1571 1.7947 11.0879 1.62778 10.9649 1.50471C10.8418 1.38164 10.6749 1.3125 10.5008 1.3125C10.3268 1.3125 10.1599 1.38164 10.0368 1.50471C9.91372 1.62778 9.84458 1.7947 9.84458 1.96875V13.5096L7.02795 10.6916C6.90473 10.5684 6.7376 10.4992 6.56333 10.4992C6.38906 10.4992 6.22193 10.5684 6.0987 10.6916C5.97548 10.8149 5.90625 10.982 5.90625 11.1562C5.90625 11.3305 5.97548 11.4976 6.0987 11.6209L10.0362 15.5584Z" fill="white"/>
</g>
<defs>
<clipPath id="clip0_5685_4101">
<rect width="21" height="20" fill="white"/>
</clipPath>
</defs>
</svg>
