<svg width="24" height="25" viewBox="0 0 24 25" fill="none" xmlns="http://www.w3.org/2000/svg">
<g clip-path="url(#clip0_5685_4084)">
<path fill-rule="evenodd" clip-rule="evenodd" d="M15.117 1.80053C14.7132 1.38734 14.231 1.05902 13.6985 0.834867C13.1661 0.61071 12.5942 0.495239 12.0165 0.495239C11.4388 0.495239 10.8669 0.61071 10.3345 0.834867C9.80202 1.05902 9.31975 1.38734 8.91599 1.80053L7.98299 2.75753L6.64799 2.74103C6.07012 2.73419 5.49671 2.84297 4.96149 3.06096C4.42626 3.27896 3.94003 3.60177 3.53138 4.01042C3.12273 4.41907 2.79992 4.9053 2.58193 5.44052C2.36393 5.97575 2.25515 6.54916 2.26199 7.12703L2.27699 8.46203L1.32299 9.39503C0.909804 9.79879 0.581484 10.2811 0.357328 10.8135C0.133171 11.3459 0.0177002 11.9178 0.0177002 12.4955C0.0177002 13.0732 0.133171 13.6451 0.357328 14.1776C0.581484 14.71 0.909804 15.1923 1.32299 15.596L2.27849 16.529L2.26199 17.864C2.25515 18.4419 2.36393 19.0153 2.58193 19.5505C2.79992 20.0858 3.12273 20.572 3.53138 20.9806C3.94003 21.3893 4.42626 21.7121 4.96149 21.9301C5.49671 22.1481 6.07012 22.2569 6.64799 22.25L7.98299 22.235L8.91599 23.189C9.31975 23.6022 9.80202 23.9305 10.3345 24.1547C10.8669 24.3789 11.4388 24.4943 12.0165 24.4943C12.5942 24.4943 13.1661 24.3789 13.6985 24.1547C14.231 23.9305 14.7132 23.6022 15.117 23.189L16.05 22.2335L17.385 22.25C17.9629 22.2569 18.5363 22.1481 19.0715 21.9301C19.6067 21.7121 20.093 21.3893 20.5016 20.9806C20.9103 20.572 21.2331 20.0858 21.4511 19.5505C21.6691 19.0153 21.7778 18.4419 21.771 17.864L21.756 16.529L22.71 15.596C23.1232 15.1923 23.4515 14.71 23.6757 14.1776C23.8998 13.6451 24.0153 13.0732 24.0153 12.4955C24.0153 11.9178 23.8998 11.3459 23.6757 10.8135C23.4515 10.2811 23.1232 9.79879 22.71 9.39503L21.7545 8.46203L21.771 7.12703C21.7778 6.54916 21.6691 5.97575 21.4511 5.44052C21.2331 4.9053 20.9103 4.41907 20.5016 4.01042C20.093 3.60177 19.6067 3.27896 19.0715 3.06096C18.5363 2.84297 17.9629 2.73419 17.385 2.74103L16.05 2.75603L15.117 1.80203V1.80053ZM15.5475 10.7765C15.6883 10.6357 15.7674 10.4447 15.7674 10.2455C15.7674 10.0464 15.6883 9.85536 15.5475 9.71453C15.4067 9.5737 15.2157 9.49459 15.0165 9.49459C14.8173 9.49459 14.6263 9.5737 14.4855 9.71453L10.5165 13.685L8.79749 11.9645C8.72776 11.8948 8.64498 11.8395 8.55387 11.8017C8.46276 11.764 8.36511 11.7446 8.26649 11.7446C8.16788 11.7446 8.07023 11.764 7.97912 11.8017C7.88801 11.8395 7.80522 11.8948 7.73549 11.9645C7.66576 12.0343 7.61045 12.117 7.57271 12.2082C7.53497 12.2993 7.51554 12.3969 7.51554 12.4955C7.51555 12.5941 7.53497 12.6918 7.57271 12.7829C7.61045 12.874 7.66576 12.9568 7.73549 13.0265L9.98549 15.2765C10.0552 15.3464 10.1379 15.4018 10.229 15.4396C10.3202 15.4774 10.4178 15.4969 10.5165 15.4969C10.6151 15.4969 10.7128 15.4774 10.8039 15.4396C10.8951 15.4018 10.9778 15.3464 11.0475 15.2765L15.5475 10.7765Z" fill="#DA291C"/>
</g>
<defs>
<clipPath id="clip0_5685_4084">
<rect width="24" height="24" fill="white" transform="translate(0 0.5)"/>
</clipPath>
</defs>
</svg>
