<svg width="25" height="24" viewBox="0 0 25 24" fill="none" xmlns="http://www.w3.org/2000/svg">
<path fill-rule="evenodd" clip-rule="evenodd" d="M8.00089 17.2499C8.00089 17.051 8.0799 16.8602 8.22056 16.7195C8.36121 16.5789 8.55197 16.4999 8.75089 16.4999H22.2509C22.4498 16.4999 22.6406 16.5789 22.7812 16.7195C22.9219 16.8602 23.0009 17.051 23.0009 17.2499C23.0009 17.4488 22.9219 17.6396 22.7812 17.7802C22.6406 17.9209 22.4498 17.9999 22.2509 17.9999H8.75089C8.55197 17.9999 8.36121 17.9209 8.22056 17.7802C8.0799 17.6396 8.00089 17.4488 8.00089 17.2499ZM8.00089 11.2499C8.00089 11.051 8.0799 10.8602 8.22056 10.7195C8.36121 10.5789 8.55197 10.4999 8.75089 10.4999H22.2509C22.4498 10.4999 22.6406 10.5789 22.7812 10.7195C22.9219 10.8602 23.0009 11.051 23.0009 11.2499C23.0009 11.4488 22.9219 11.6396 22.7812 11.7802C22.6406 11.9209 22.4498 11.9999 22.2509 11.9999H8.75089C8.55197 11.9999 8.36121 11.9209 8.22056 11.7802C8.0799 11.6396 8.00089 11.4488 8.00089 11.2499ZM8.00089 5.24988C8.00089 5.05096 8.0799 4.8602 8.22056 4.71955C8.36121 4.57889 8.55197 4.49988 8.75089 4.49988H22.2509C22.4498 4.49988 22.6406 4.57889 22.7812 4.71955C22.9219 4.8602 23.0009 5.05096 23.0009 5.24988C23.0009 5.44879 22.9219 5.63955 22.7812 5.78021C22.6406 5.92086 22.4498 5.99988 22.2509 5.99988H8.75089C8.55197 5.99988 8.36121 5.92086 8.22056 5.78021C8.0799 5.63955 8.00089 5.44879 8.00089 5.24988ZM6.28189 3.21888C6.35173 3.28854 6.40715 3.37131 6.44495 3.46243C6.48276 3.55354 6.50223 3.65123 6.50223 3.74988C6.50223 3.84853 6.48276 3.94621 6.44495 4.03733C6.40715 4.12844 6.35173 4.21121 6.28189 4.28088L4.03189 6.53088C3.96222 6.60072 3.87945 6.65614 3.78834 6.69395C3.69722 6.73176 3.59954 6.75122 3.50089 6.75122C3.40224 6.75122 3.30455 6.73176 3.21344 6.69395C3.12232 6.65614 3.03955 6.60072 2.96989 6.53088L2.21989 5.78088C2.15015 5.71114 2.09484 5.62836 2.0571 5.53725C2.01936 5.44614 1.99994 5.34849 1.99994 5.24988C1.99994 5.15126 2.01936 5.05361 2.0571 4.9625C2.09484 4.87139 2.15015 4.78861 2.21989 4.71888C2.28962 4.64914 2.3724 4.59383 2.46351 4.55609C2.55462 4.51835 2.65227 4.49893 2.75089 4.49893C2.8495 4.49893 2.94715 4.51835 3.03826 4.55609C3.12937 4.59383 3.21215 4.64914 3.28189 4.71888L3.50089 4.93938L5.21989 3.21888C5.28955 3.14903 5.37232 3.09362 5.46344 3.05581C5.55455 3.018 5.65224 2.99854 5.75089 2.99854C5.84954 2.99854 5.94722 3.018 6.03834 3.05581C6.12945 3.09362 6.21222 3.14903 6.28189 3.21888ZM6.28189 9.21888C6.35173 9.28854 6.40715 9.37131 6.44495 9.46243C6.48276 9.55354 6.50223 9.65123 6.50223 9.74988C6.50223 9.84853 6.48276 9.94621 6.44495 10.0373C6.40715 10.1284 6.35173 10.2112 6.28189 10.2809L4.03189 12.5309C3.96222 12.6007 3.87945 12.6561 3.78834 12.6939C3.69722 12.7318 3.59954 12.7512 3.50089 12.7512C3.40224 12.7512 3.30455 12.7318 3.21344 12.6939C3.12232 12.6561 3.03955 12.6007 2.96989 12.5309L2.21989 11.7809C2.07906 11.64 1.99994 11.449 1.99994 11.2499C1.99994 11.0507 2.07906 10.8597 2.21989 10.7189C2.36072 10.578 2.55172 10.4989 2.75089 10.4989C2.95005 10.4989 3.14106 10.578 3.28189 10.7189L3.50089 10.9394L5.21989 9.21888C5.28955 9.14903 5.37232 9.09362 5.46344 9.05581C5.55455 9.018 5.65224 8.99854 5.75089 8.99854C5.84954 8.99854 5.94722 9.018 6.03834 9.05581C6.12945 9.09362 6.21222 9.14903 6.28189 9.21888ZM6.28189 15.2189C6.35173 15.2885 6.40715 15.3713 6.44495 15.4624C6.48276 15.5535 6.50223 15.6512 6.50223 15.7499C6.50223 15.8485 6.48276 15.9462 6.44495 16.0373C6.40715 16.1284 6.35173 16.2112 6.28189 16.2809L4.03189 18.5309C3.96222 18.6007 3.87945 18.6561 3.78834 18.6939C3.69722 18.7318 3.59954 18.7512 3.50089 18.7512C3.40224 18.7512 3.30455 18.7318 3.21344 18.6939C3.12232 18.6561 3.03955 18.6007 2.96989 18.5309L2.21989 17.7809C2.07906 17.64 1.99994 17.449 1.99994 17.2499C1.99994 17.0507 2.07906 16.8597 2.21989 16.7189C2.36072 16.578 2.55172 16.4989 2.75089 16.4989C2.95005 16.4989 3.14106 16.578 3.28189 16.7189L3.50089 16.9394L5.21989 15.2189C5.28955 15.149 5.37232 15.0936 5.46344 15.0558C5.55455 15.018 5.65224 14.9985 5.75089 14.9985C5.84954 14.9985 5.94722 15.018 6.03834 15.0558C6.12945 15.0936 6.21222 15.149 6.28189 15.2189Z" fill="white"/>
</svg>
