<?xml version="1.0" encoding="UTF-8" standalone="no" ?>
<!DOCTYPE svg PUBLIC "-//W3C//DTD SVG 1.1//EN" "http://www.w3.org/Graphics/SVG/1.1/DTD/svg11.dtd">
<svg xmlns="http://www.w3.org/2000/svg" xmlns:xlink="http://www.w3.org/1999/xlink" version="1.1" width="1080" height="1080" viewBox="0 0 1080 1080" xml:space="preserve">
<desc>Created with Fabric.js 5.2.4</desc>
<defs>
</defs>
<g transform="matrix(1 0 0 1 540 540)" id="4705e582-b868-4f4b-9014-d71b916cc758"  >
<rect style="stroke: none; stroke-width: 1; stroke-dasharray: none; stroke-linecap: butt; stroke-dashoffset: 0; stroke-linejoin: miter; stroke-miterlimit: 4; fill: rgb(255,255,255); fill-rule: nonzero; opacity: 1; visibility: hidden;" vector-effect="non-scaling-stroke"  x="-540" y="-540" rx="0" ry="0" width="1080" height="1080" />
</g>
<g transform="matrix(1 0 0 1 540 540)" id="39ae3b51-04c6-42ae-b08f-cafb3bfa8e23"  >
</g>
<g transform="matrix(NaN NaN NaN NaN 0 0)"  >
<g style=""   >
</g>
</g>
<g transform="matrix(NaN NaN NaN NaN 0 0)"  >
<g style=""   >
</g>
</g>
<g transform="matrix(1 0 0 1 -72.12 50)"  >
<rect style="stroke: none; stroke-width: 1; stroke-dasharray: none; stroke-linecap: butt; stroke-dashoffset: 0; stroke-linejoin: miter; stroke-miterlimit: 4; fill: rgb(255,255,255); fill-opacity: 0; fill-rule: nonzero; opacity: 1;" vector-effect="non-scaling-stroke"  x="-50" y="-50" rx="0" ry="0" width="100" height="100" />
</g>
<g transform="matrix(1 0 0 1 417.88 540)"  >
<rect style="stroke: none; stroke-width: 1; stroke-dasharray: none; stroke-linecap: butt; stroke-dashoffset: 0; stroke-linejoin: miter; stroke-miterlimit: 4; fill: rgb(255,255,255); fill-rule: nonzero; opacity: 1; visibility: hidden;" vector-effect="non-scaling-stroke"  x="-540" y="-540" rx="0" ry="0" width="1080" height="1080" />
</g>
<g transform="matrix(2.34 0 0 2.33 501.66 440.75)"  >
<path style="stroke: none; stroke-width: 1; stroke-dasharray: none; stroke-linecap: butt; stroke-dashoffset: 0; stroke-linejoin: miter; stroke-miterlimit: 4; fill: rgb(218,41,28); fill-rule: nonzero; opacity: 1;" vector-effect="non-scaling-stroke"  transform=" translate(422, 51.93)" d="M -473.300009 -222.666694 C -486.233343 -220.800027 -503.033344 -210.800026 -508.633345 -201.733359 C -510.633345 -198.533359 -512.366678 -197.333359 -514.900012 -197.333359 C -526.500012 -197.200026 -542.76668 -189.466692 -552.233347 -179.466691 C -560.633347 -170.533357 -565.033348 -162.800024 -568.366681 -151.06669 C -570.766681 -142.266689 -571.700015 -140.800023 -580.233348 -132.800022 C -590.900016 -122.666688 -596.766683 -112.666688 -599.966683 -99.20002 C -602.633349 -87.60002 -601.566683 -73.066686 -597.300016 -62.400019 C -597.300016 -62.400019 -594.100016 -54.666685 -594.100016 -54.666685 C -594.100016 -54.666685 -597.433349 -45.733351 -597.433349 -45.733351 C -603.566683 -28.800017 -602.900016 -10.400016 -595.566682 5.066652 C -588.633349 19.866652 -569.833348 35.466653 -555.700014 38.13332 C -555.700014 38.13332 -551.16668 38.93332 -551.16668 38.93332 C -551.16668 38.93332 -551.16668 49.199987 -551.16668 49.199987 C -551.16668 72.133322 -541.700013 91.333323 -523.833345 104.933324 C -514.233345 112.266657 -506.633344 115.866657 -495.833344 118.133324 C -481.70001 121.199991 -464.500009 120.133324 -464.500009 116.133324 C -464.500009 114.933324 -465.700009 109.733324 -467.300009 104.666657 C -467.300009 104.666657 -470.100009 95.19999 -470.100009 95.19999 C -470.100009 95.19999 -481.70001 95.333323 -481.70001 95.333323 C -492.10001 95.333323 -494.10001 94.933323 -502.100011 90.933323 C -513.033345 85.599989 -521.966679 76.133322 -525.833345 65.599988 C -528.233346 59.466655 -528.633346 55.999988 -528.233346 47.333321 C -527.566679 34.399987 -523.700012 25.866653 -514.766678 17.733319 C -507.566678 11.066652 -502.500011 8.266652 -491.833344 5.333318 C -485.166677 3.466652 -483.433343 2.399985 -481.70001 -1.200015 C -478.90001 -6.533349 -480.10001 -11.600016 -484.90001 -15.200016 C -488.233344 -17.600016 -489.033344 -17.73335 -497.433344 -16.133349 C -513.966678 -13.066683 -530.900012 -1.600015 -541.16668 13.599985 C -543.033346 16.399986 -545.433346 18.666652 -546.36668 18.666652 C -550.100013 18.666652 -564.633347 10.266652 -568.633348 5.733318 C -581.833348 -9.333349 -582.500015 -30.266684 -570.366681 -48.266684 C -570.366681 -48.266684 -565.700014 -55.200018 -565.700014 -55.200018 C -565.700014 -55.200018 -568.500014 -58.533352 -568.500014 -58.533352 C -573.166681 -64.266685 -577.700015 -74.800019 -578.500015 -82.00002 C -580.766682 -99.20002 -568.766681 -118.800021 -553.033347 -124.000022 C -548.900013 -125.466688 -548.500013 -126.000022 -548.500013 -130.800022 C -548.500013 -154.133357 -531.433346 -174.400024 -512.500011 -173.733358 C -508.500011 -173.600024 -503.700011 -173.333358 -501.833344 -173.066691 C -499.166677 -172.800024 -497.966677 -173.733358 -495.166677 -178.933358 C -490.366677 -187.866692 -484.90001 -193.200025 -477.166676 -196.800026 C -462.500009 -203.733359 -443.700008 -198.666692 -436.633341 -186.000025 C -434.766674 -182.533358 -434.366674 -173.733358 -433.833341 -112.400021 C -433.833341 -112.400021 -433.166674 -42.800017 -433.166674 -42.800017 C -433.166674 -42.800017 -421.43334 -51.600018 -421.43334 -51.600018 C -421.43334 -51.600018 -409.833339 -60.266685 -409.833339 -60.266685 C -409.833339 -60.266685 -409.833339 -120.133355 -409.833339 -120.133355 C -409.833339 -185.600025 -409.833339 -185.733358 -402.100006 -192.266692 C -388.366672 -203.733359 -368.100004 -202.133359 -354.900003 -188.400025 C -352.233336 -185.600025 -349.433336 -181.733358 -348.633336 -179.866691 C -347.433336 -176.666691 -346.633336 -176.266691 -337.433336 -175.733358 C -318.366668 -174.533358 -304.366667 -164.000024 -299.166667 -146.933356 C -297.7 -142.266689 -296.5 -135.600022 -296.5 -132.133355 C -296.5 -126.133355 -296.366667 -126.000022 -290.1 -123.066688 C -272.233332 -114.800021 -261.566665 -93.066687 -266.366665 -74.533352 C -267.433332 -70.533352 -268.233332 -67.333352 -268.099999 -67.200019 C -267.966665 -67.066685 -263.433332 -65.333352 -258.099998 -63.333352 C -251.699998 -60.800018 -247.966664 -60.000018 -247.033331 -60.933352 C -246.366664 -61.600018 -244.766664 -66.800019 -243.699997 -72.533352 C -238.766664 -96.666687 -248.099998 -121.466688 -267.833332 -136.000022 C -273.033332 -139.866689 -275.166666 -142.266689 -275.166666 -144.400023 C -275.166666 -146.133356 -276.366666 -151.200023 -277.966666 -155.733357 C -285.433333 -177.733358 -303.033334 -193.333359 -325.033335 -197.466692 C -331.433335 -198.666692 -333.433335 -199.733359 -340.100002 -206.533359 C -360.76667 -227.066694 -392.100005 -229.333361 -415.03334 -211.866693 C -415.03334 -211.866693 -422.100007 -206.533359 -422.100007 -206.533359 C -422.100007 -206.533359 -425.700007 -209.866693 -425.700007 -209.866693 C -430.366674 -214.400026 -444.900008 -220.93336 -453.700008 -222.666694 C -461.566675 -224.13336 -463.300009 -224.13336 -473.300009 -222.666694 C -473.300009 -222.666694 -473.300009 -222.666694 -473.300009 -222.666694 Z" stroke-linecap="round" />
</g>
<g transform="matrix(2.34 0 0 2.33 304.5 344.66)"  >
<path style="stroke: none; stroke-width: 1; stroke-dasharray: none; stroke-linecap: butt; stroke-dashoffset: 0; stroke-linejoin: miter; stroke-miterlimit: 4; fill: rgb(218,41,28); fill-rule: nonzero; opacity: 1;" vector-effect="non-scaling-stroke"  transform=" translate(505, 94.76)" d="M -482.633343 -150.933356 C -488.10001 -150.133356 -490.50001 -145.733356 -490.633344 -136.666689 C -490.766677 -125.200022 -495.966677 -114.666688 -504.100011 -108.800021 C -511.300011 -103.733354 -520.900012 -100.133354 -527.566679 -100.00002 C -533.433346 -100.00002 -539.833346 -97.066687 -541.033346 -94.00002 C -542.76668 -89.20002 -541.833346 -83.866686 -538.366679 -80.400019 C -534.766679 -76.800019 -533.566679 -76.800019 -514.900012 -79.466686 C -509.433345 -80.266686 -508.633345 -80.000019 -507.166678 -77.333353 C -504.766678 -72.933352 -506.366678 -63.333352 -510.366678 -57.600018 C -512.233345 -54.800018 -513.833345 -50.933351 -513.833345 -48.933351 C -513.833345 -44.800018 -508.633345 -38.800017 -504.900011 -38.533351 C -496.633344 -38.000017 -492.766677 -40.533351 -487.70001 -49.733351 C -484.233343 -55.866685 -483.833343 -58.000018 -483.833343 -68.666686 C -483.833343 -77.866686 -484.50001 -82.00002 -486.50001 -86.533353 C -486.50001 -86.533353 -489.30001 -92.40002 -489.30001 -92.40002 C -489.30001 -92.40002 -482.766677 -98.933354 -482.766677 -98.933354 C -475.033343 -106.666687 -470.100009 -117.200021 -468.500009 -129.600022 C -467.433342 -138.800022 -468.633342 -147.06669 -471.300009 -148.66669 C -473.700009 -150.26669 -479.833343 -151.46669 -482.633343 -150.933356 C -482.633343 -150.933356 -482.633343 -150.933356 -482.633343 -150.933356 Z" stroke-linecap="round" />
</g>
<g transform="matrix(2.34 0 0 2.33 675.01 309.32)"  >
<path style="stroke: none; stroke-width: 1; stroke-dasharray: none; stroke-linecap: butt; stroke-dashoffset: 0; stroke-linejoin: miter; stroke-miterlimit: 4; fill: rgb(218,41,28); fill-rule: nonzero; opacity: 1;" vector-effect="non-scaling-stroke"  transform=" translate(346.5, 109.96)" d="M -372.500004 -129.733355 C -377.033338 -126.666689 -377.833338 -125.333355 -377.833338 -120.533355 C -377.833338 -113.466688 -374.233338 -110.533354 -364.500004 -109.466688 C -359.700003 -108.933354 -353.56667 -107.466688 -350.76667 -106.133354 C -345.966669 -103.733354 -333.833335 -91.60002 -333.833335 -89.20002 C -333.833335 -88.533353 -330.900002 -88.00002 -327.300002 -88.00002 C -321.700001 -88.00002 -320.233335 -88.533353 -317.966668 -91.466687 C -316.366668 -93.466687 -315.166668 -95.866687 -315.166668 -96.933354 C -315.166668 -102.666687 -325.700002 -116.666688 -334.766669 -122.800022 C -346.633336 -131.066689 -365.56667 -134.533356 -372.500004 -129.733355 C -372.500004 -129.733355 -372.500004 -129.733355 -372.500004 -129.733355 Z" stroke-linecap="round" />
</g>
<g transform="matrix(2.34 0 0 2.33 710.31 724.59)"  >
<path style="stroke: none; stroke-width: 1; stroke-dasharray: none; stroke-linecap: butt; stroke-dashoffset: 0; stroke-linejoin: miter; stroke-miterlimit: 4; fill: rgb(218,41,28); fill-rule: nonzero; opacity: 1;" vector-effect="non-scaling-stroke"  transform=" translate(331.48, -70.62)" d="M -358.149571 -62.466685 C -404.41624 -52.200018 -439.082908 -19.400016 -451.216242 25.533319 C -454.149576 36.599987 -454.682909 41.13332 -454.682909 58.333321 C -454.682909 82.066656 -452.149576 94.066656 -442.949575 112.999991 C -433.082908 133.533325 -418.282907 150.199993 -399.21624 162.599993 C -378.682905 175.933327 -360.416238 181.399994 -332.816236 182.599994 C -332.816236 182.599994 -314.816235 183.266661 -314.816235 183.266661 C -314.816235 183.266661 -300.816235 192.333328 -300.816235 192.333328 C -278.2829 206.733329 -274.549567 207.933329 -266.282899 203.666662 C -261.482899 201.266662 -259.749566 196.733328 -258.816232 183.666661 C -257.082899 158.599993 -257.882899 160.86666 -245.482898 147.933326 C -228.149564 129.799992 -218.949564 114.466657 -212.01623 91.666656 C -208.682896 80.599989 -208.282896 77.799989 -208.282896 57.666654 C -208.282896 37.53332 -208.682896 34.73332 -212.01623 23.666653 C -224.549564 -17.666683 -258.416232 -50.200018 -300.816235 -61.666685 C -314.149569 -65.133352 -343.74957 -65.666685 -358.149571 -62.466685 C -358.149571 -62.466685 -358.149571 -62.466685 -358.149571 -62.466685 Z M -266.949566 11.133319 C -262.682899 14.466652 -262.282899 20.466653 -266.016233 24.199986 C -269.749566 27.93332 -281.4829 28.599986 -337.482903 28.066653 C -382.149572 27.666653 -387.349572 27.399986 -390.549573 25.266653 C -393.216239 23.533319 -394.149573 21.799986 -394.149573 18.599986 C -394.016239 8.333319 -394.682906 8.466652 -328.682903 8.333319 C -271.8829 8.333319 -270.416233 8.333319 -266.949566 11.133319 C -266.949566 11.133319 -266.949566 11.133319 -266.949566 11.133319 Z M -253.216232 55.266654 C -249.216232 58.999988 -249.349565 63.666655 -253.482899 67.666655 C -253.482899 67.666655 -256.682899 70.999988 -256.682899 70.999988 C -256.682899 70.999988 -328.682903 70.999988 -328.682903 70.999988 C -380.816239 70.999988 -401.61624 70.599988 -404.149573 69.399988 C -410.149574 66.733322 -410.282907 56.733321 -404.549573 53.933321 C -402.41624 52.999988 -378.549572 52.466654 -328.949569 52.466654 C -328.949569 52.466654 -256.282899 52.333321 -256.282899 52.333321 C -256.282899 52.333321 -253.216232 55.266654 -253.216232 55.266654 C -253.216232 55.266654 -253.216232 55.266654 -253.216232 55.266654 Z M -279.616233 98.733323 C -276.149567 101.533323 -275.4829 108.866657 -278.416233 111.799991 C -279.4829 112.999991 -282.816234 114.466657 -285.616234 114.999991 C -292.416234 116.599991 -367.882905 116.599991 -374.816238 114.999991 C -381.082905 113.533324 -383.482906 110.733324 -383.482906 104.866657 C -383.482906 96.333323 -383.082906 96.333323 -330.016236 96.333323 C -286.549567 96.333323 -282.149567 96.59999 -279.616233 98.733323 C -279.616233 98.733323 -279.616233 98.733323 -279.616233 98.733323 Z" stroke-linecap="round" />
</g>
</svg>