<svg version="1.2" xmlns="http://www.w3.org/2000/svg" viewBox="0 0 1207 438" width="1207" height="438">
	<title>logo-genia-white</title>
	<style>
		.s0 { fill: #ffffff } 
	</style>
	<g>
		<g>
			<g>
				<g>
					<g>
						<g>
							<g>
								<g>
									<g>
										<g>
											<path class="s0" d="m128.29 1.1c-12.93 1.87-29.73 11.87-35.33 20.93-2 3.2-3.73 4.4-6.27 4.4-11.6 0.14-27.86 7.87-37.33 17.87-8.4 8.93-12.8 16.67-16.13 28.4-2.4 8.8-3.34 10.27-11.87 18.27-10.67 10.13-16.53 20.13-19.73 33.6-2.67 11.6-1.6 26.13 2.66 36.8l3.2 7.73-3.33 8.93c-6.13 16.94-5.47 35.34 1.87 50.8 6.93 14.8 25.73 30.4 39.86 33.07l4.54 0.8v10.27c0 22.93 9.46 42.13 27.33 55.73 9.6 7.33 17.2 10.93 28 13.2 14.13 3.07 31.33 2 31.33-2 0-1.2-1.2-6.4-2.8-11.47l-2.8-9.46-11.6 0.13c-10.4 0-12.4-0.4-20.4-4.4-10.93-5.33-19.86-14.8-23.73-25.33-2.4-6.14-2.8-9.6-2.4-18.27 0.67-12.93 4.53-21.47 13.47-29.6 7.2-6.67 12.26-9.47 22.93-12.4 6.67-1.87 8.4-2.93 10.13-6.53 2.8-5.34 1.6-10.4-3.2-14-3.33-2.4-4.13-2.54-12.53-0.94-16.53 3.07-33.47 14.54-43.73 29.74-1.87 2.8-4.27 5.06-5.2 5.06-3.74 0-18.27-8.4-22.27-12.93-13.2-15.07-13.87-36-1.73-54l4.66-6.93-2.8-3.34c-4.66-5.73-9.2-16.26-10-23.46-2.26-17.2 9.74-36.8 25.47-42 4.13-1.47 4.53-2 4.53-6.8 0-23.34 17.07-43.6 36-42.94 4 0.14 8.8 0.4 10.67 0.67 2.67 0.27 3.87-0.67 6.67-5.87 4.8-8.93 10.26-14.26 18-17.86 14.66-6.94 33.46-1.87 40.53 10.8 1.87 3.46 2.27 12.26 2.8 73.6l0.67 69.6 11.73-8.8 11.6-8.67v-59.87c0-65.46 0-65.6 7.73-72.13 13.74-11.47 34-9.87 47.2 3.87 2.67 2.8 5.47 6.66 6.27 8.53 1.2 3.2 2 3.6 11.2 4.13 19.07 1.2 33.07 11.74 38.27 28.8 1.46 4.67 2.66 11.34 2.66 14.8 0 6 0.14 6.14 6.4 9.07 17.87 8.27 28.54 30 23.74 48.53-1.07 4-1.87 7.2-1.74 7.34 0.14 0.13 4.67 1.86 10 3.86 6.4 2.54 10.14 3.34 11.07 2.4 0.67-0.66 2.27-5.86 3.33-11.6 4.94-24.13-4.4-48.93-24.13-63.46-5.2-3.87-7.33-6.27-7.33-8.4 0-1.74-1.2-6.8-2.8-11.34-7.47-22-25.07-37.6-47.07-41.73-6.4-1.2-8.4-2.27-15.07-9.07-20.66-20.53-52-22.8-74.93-5.33l-7.07 5.33-3.6-3.33c-4.66-4.53-19.2-11.07-28-12.8-7.86-1.47-9.6-1.47-19.6 0z"/>
										</g>
									</g>
									<g>
										<g>
										</g>
									</g>
									<g>
										<g>
										</g>
									</g>
									<g>
										<g>
										</g>
									</g>
									<g>
										<g>
										</g>
									</g>
									<g>
										<g>
										</g>
									</g>
									<g>
										<g>
											<path class="s0" d="m118.96 72.83c-5.47 0.8-7.87 5.2-8 14.27-0.13 11.47-5.33 22-13.47 27.87-7.2 5.06-16.8 8.66-23.46 8.8-5.87 0-12.27 2.93-13.47 6-1.73 4.8-0.8 10.13 2.67 13.6 3.6 3.6 4.8 3.6 23.46 0.93 5.47-0.8 6.27-0.53 7.74 2.13 2.4 4.4 0.8 14-3.2 19.74-1.87 2.8-3.47 6.66-3.47 8.66 0 4.14 5.2 10.14 8.93 10.4 8.27 0.54 12.14-2 17.2-11.2 3.47-6.13 3.87-8.26 3.87-18.93 0-9.2-0.67-13.33-2.67-17.87l-2.8-5.86 6.54-6.54c7.73-7.73 12.66-18.26 14.26-30.66 1.07-9.2-0.13-17.47-2.8-19.07-2.4-1.6-8.53-2.8-11.33-2.27z"/>
										</g>
									</g>
									<g>
										<g>
											<path class="s0" d="m229.09 94.03c-4.53 3.07-5.33 4.4-5.33 9.2 0 7.07 3.6 10 13.33 11.07 4.8 0.53 10.94 2 13.74 3.33 4.8 2.4 16.93 14.54 16.93 16.94 0 0.66 2.93 1.2 6.53 1.2 5.6 0 7.07-0.54 9.34-3.47 1.6-2 2.8-4.4 2.8-5.47 0-5.73-10.54-19.73-19.6-25.86-11.87-8.27-30.8-11.74-37.74-6.94z"/>
										</g>
									</g>
									<g>
										<g>
											<path class="s0" d="m243.45 161.3c-46.27 10.27-80.94 43.07-93.07 88-2.93 11.07-3.47 15.6-3.47 32.8 0 23.73 2.54 35.73 11.74 54.67 9.86 20.53 24.66 37.2 43.73 49.6 20.53 13.33 38.8 18.8 66.4 20l18 0.66 14 9.07c22.53 14.4 26.27 15.6 34.53 11.33 4.8-2.4 6.54-6.93 7.47-20 1.73-25.06 0.93-22.8 13.33-35.73 17.34-18.13 26.54-33.47 33.47-56.27 3.33-11.06 3.73-13.86 3.73-34 0-20.13-0.4-22.93-3.73-34-12.53-41.33-46.4-73.86-88.8-85.33-13.33-3.47-42.93-4-57.33-0.8zm91.2 73.6c4.26 3.33 4.66 9.33 0.93 13.07-3.73 3.73-15.47 4.4-71.47 3.86-44.66-0.4-49.86-0.66-53.06-2.8-2.67-1.73-3.6-3.46-3.6-6.66 0.13-10.27-0.54-10.14 65.46-10.27 56.8 0 58.27 0 61.74 2.8zm13.73 44.13c4 3.74 3.87 8.4-0.27 12.4l-3.2 3.34h-72c-52.13 0-72.93-0.4-75.46-1.6-6-2.67-6.14-12.67-0.4-15.47 2.13-0.93 26-1.47 75.6-1.47l72.66-0.13 3.07 2.93zm-26.4 43.47c3.47 2.8 4.13 10.13 1.2 13.07-1.07 1.2-4.4 2.66-7.2 3.2-6.8 1.6-82.27 1.6-89.2 0-6.27-1.47-8.67-4.27-8.67-10.14 0-8.53 0.4-8.53 53.47-8.53 43.47 0 47.87 0.27 50.4 2.4z"/>
										</g>
									</g>
									<g>
										<g>
											<path id="GenIA Suite" class="s0" aria-label="GenIA
Suite"  d="m594.5 108.6v70.9q-9.9 11.9-28 18.5-18 6.4-40 6.4-23.1 0-40.5-10-17.4-10.1-26.9-29.3-9.4-19.1-9.6-45v-12.1q0-26.6 8.9-46 9-19.5 25.9-29.8 16.9-10.4 39.6-10.4 31.7 0 49.5 15.2 17.8 15 21.1 43.8h-35.7q-2.4-15.3-10.8-22.4-8.3-7-23-7-18.6 0-28.4 14-9.8 14-9.9 41.8v11.3q0 28 10.6 42.2 10.6 14.3 31.2 14.3 20.6 0 29.4-8.8v-30.6h-33.4v-27zm87.9 95.8q-29.1 0-47.4-17.8-18.2-17.8-18.2-47.5v-3.4q0-19.9 7.7-35.5 7.7-15.8 21.8-24.2 14.1-8.5 32.2-8.5 27.1 0 42.6 17.1 15.6 17.1 15.6 48.4v14.4h-84.1q1.7 13 10.3 20.8 8.6 7.8 21.8 7.8 20.4 0 31.9-14.8l17.3 19.4q-7.9 11.3-21.5 17.6-13.5 6.2-30 6.2zm-4-108.4q-10.5 0-17.1 7.1-6.5 7.1-8.3 20.3h49v-2.8q-0.2-11.7-6.3-18.1-6.1-6.5-17.3-6.5zm77.5-26.1h33.2l1.1 15.3q14.1-17.7 37.9-17.7 21 0 31.3 12.3 10.2 12.3 10.5 36.9v85.3h-35.3v-84.5q0-11.2-4.9-16.2-4.9-5.1-16.2-5.1-14.9 0-22.4 12.7v93.1h-35.2zm182-45.7v177.8h-36.7v-177.8zm149.8 177.8l-12.4-36.6h-64.2l-12.2 36.6h-38.9l66.1-177.8h34l66.5 177.8zm-44.5-132.8l-22.1 66.5h44.4zm-497 296.2q0-10.4-7.3-15.9-7.3-5.6-26.3-11.7-19.1-6.2-30.2-12.2-30.3-16.4-30.3-44.1 0-14.4 8.1-25.6 8.2-11.4 23.3-17.7 15.3-6.4 34.2-6.4 19 0 33.9 7 14.9 6.8 23.1 19.4 8.3 12.6 8.3 28.6h-36.6q0-12.2-7.7-19-7.7-6.8-21.6-6.8-13.5 0-20.9 5.7-7.5 5.7-7.5 14.9 0 8.7 8.7 14.6 8.8 5.8 25.8 11 31.2 9.3 45.5 23.3 14.3 13.9 14.3 34.6 0 23.1-17.5 36.3-17.4 13-47 13-20.5 0-37.3-7.4-16.9-7.6-25.8-20.6-8.8-13.1-8.8-30.3h36.8q0 29.4 35.1 29.4 13.1 0 20.4-5.2 7.3-5.4 7.3-14.9zm139.6 46.6l-0.9-13.4q-13.1 15.8-36.2 15.8-21.2 0-32.4-12.2-11.1-12.2-11.4-35.7v-86.6h35.3v85.4q0 20.6 18.8 20.6 17.9 0 24.6-12.5v-93.5h35.4v132.1zm97.2-132.1v132.1h-35.4v-132.1zm-37.5-34.2q0-7.9 5.3-13 5.3-5.1 14.5-5.1 9 0 14.4 5.1 5.4 5.1 5.4 13 0 8.1-5.5 13.2-5.4 5.2-14.3 5.2-8.9 0-14.4-5.2-5.4-5.1-5.4-13.2zm73.2 1.8h35.3v32.4h22.6v25.9h-22.6v65.9q0 7.3 2.8 10.5 2.8 3.2 10.8 3.2 5.8 0 10.3-0.9v26.8q-10.3 3.1-21.3 3.1-37.1 0-37.9-37.4v-71.2h-19.3v-25.9h19.3zm137.9 167q-29.1 0-47.4-17.8-18.2-17.8-18.2-47.5v-3.4q0-19.9 7.7-35.5 7.7-15.8 21.7-24.2 14.2-8.5 32.2-8.5 27.1 0 42.7 17 15.6 17.1 15.6 48.5v14.4h-84.1q1.7 13 10.2 20.8 8.7 7.8 21.9 7.8 20.4 0 31.8-14.8l17.4 19.4q-8 11.2-21.5 17.6-13.6 6.2-30 6.2zm-4.1-108.4q-10.5 0-17.1 7.1-6.4 7.1-8.3 20.3h49.1v-2.8q-0.2-11.8-6.3-18.1-6.1-6.5-17.4-6.5z"/>
										</g>
									</g>
									<g>
										<g>
										</g>
									</g>
									<g>
										<g>
										</g>
									</g>
									<g>
										<g>
										</g>
									</g>
								</g>
							</g>
						</g>
					</g>
				</g>
			</g>
		</g>
	</g>
</svg>