<svg width="111" height="41" viewBox="0 0 111 41" fill="none" xmlns="http://www.w3.org/2000/svg">
<g clip-path="url(#clip0_5654_138)">
<path fill-rule="evenodd" clip-rule="evenodd" d="M78.1871 18.686C76.3105 16.8111 74.0384 15.8939 71.4632 15.8939C68.8879 15.8939 66.662 16.8111 64.8287 18.686C62.9521 20.5608 62.0341 22.8308 62.0341 25.447C62.0341 28.0631 62.9521 30.3331 64.8287 32.1647C66.662 34.0395 68.8879 35 71.4632 35C74.0384 35 76.3105 34.0424 78.1871 32.1647C80.0204 30.3331 80.9385 28.066 80.9385 25.447C80.9385 22.8279 80.0204 20.5608 78.1871 18.686ZM74.9998 28.9803C74.0384 29.9841 72.8605 30.4629 71.4632 30.4629C70.0658 30.4629 68.9312 29.9841 67.9698 28.9803C67.0085 27.9765 66.4859 26.7997 66.4859 25.447C66.4859 24.0077 67.0113 22.8308 67.9698 21.8703C68.9312 20.8666 70.1091 20.3878 71.4632 20.431C72.8605 20.3878 74.0384 20.8666 75.0431 21.8703C75.9612 22.8308 76.4405 24.0077 76.4838 25.447C76.4405 26.7997 75.9583 27.9765 74.9998 28.9803Z" fill="white"/>
<path fill-rule="evenodd" clip-rule="evenodd" d="M11.6983 11.2299C8.42442 11.1866 5.71636 12.3202 3.44714 14.6767C1.13461 16.9871 0 19.733 0 23.0068C0 26.2805 1.13461 29.0697 3.45003 31.3801C5.71925 33.6472 8.4273 34.7808 11.7012 34.7808C14.3198 34.7808 16.7218 33.9962 18.8178 32.381C20.8705 30.7225 22.2216 28.6746 22.9203 26.145H18.1624C17.5504 27.3651 16.6785 28.3688 15.5872 29.1534C14.366 29.8947 13.0986 30.2869 11.7012 30.2869C9.69183 30.2869 7.99136 29.5456 6.59402 28.1496C5.15339 26.7103 4.45472 25.0085 4.49803 23.0039C4.45472 20.9964 5.15339 19.2975 6.59402 17.8582C7.99136 16.4621 9.69472 15.7208 11.7012 15.7208C13.0986 15.7208 14.3631 16.1131 15.5872 16.8977C16.6785 17.639 17.5504 18.686 18.1624 19.9061H22.9203C22.2216 17.3765 20.8676 15.2824 18.8178 13.6701C16.7218 12.0115 14.3198 11.1837 11.7012 11.227L11.6983 11.2299Z" fill="white"/>
<path fill-rule="evenodd" clip-rule="evenodd" d="M40.5111 15.8535C37.4566 15.8103 35.3173 16.6381 34.0932 18.2533C33.3079 19.2571 32.9153 20.5637 32.7825 22.2222H37.3238C37.4104 21.4377 37.6731 20.9127 37.9792 20.5637C38.4584 19.9522 39.2466 19.6465 40.3812 19.6926C41.3426 19.6494 42.0845 19.8224 42.6071 20.1282C43.1297 20.3906 43.3491 20.9127 43.3924 21.654C43.3924 22.2655 43.043 22.7443 42.3444 23.05L38.8511 23.6154C37.2372 23.8346 35.9265 24.2269 34.9218 24.7922C33.2184 25.796 32.3898 27.4083 32.4331 29.7216C32.3898 31.334 32.9124 32.6435 33.9604 33.604C34.8756 34.3885 36.143 34.824 37.6702 34.8673C40.1589 34.824 42.1221 34.2126 43.5194 32.9925V34.8673H48.0607V21.5213C48.0607 19.3407 47.2755 17.8149 45.7915 17.0303C44.221 16.2025 42.4743 15.8103 40.5082 15.8535H40.5111ZM42.4339 26.1017L43.3058 25.6229V27.4545C43.3058 29.0236 42.8698 30.1168 42.0412 30.7254C41.1693 31.3368 40.2513 31.6426 39.2033 31.6426C38.5479 31.6426 38.0254 31.4695 37.5894 31.1205C37.1535 30.7282 36.934 30.16 36.934 29.3322C36.934 28.415 37.2834 27.7602 38.0254 27.2814C38.4613 27.0189 39.2033 26.8026 40.1647 26.6699L42.4339 26.1017Z" fill="white"/>
<path fill-rule="evenodd" clip-rule="evenodd" d="M29.7713 11.2299H25.2328V34.8673H29.7713V11.2299Z" fill="white"/>
<path fill-rule="evenodd" clip-rule="evenodd" d="M58.6735 16.5054C57.4523 16.9842 56.361 17.8149 55.4429 19.0783V16.7679L51.121 16.7246V34.8673H55.6162V26.1882C55.6162 24.7057 55.7894 23.6586 56.1849 23.0039C56.4909 22.3059 57.0568 21.7376 57.7555 21.2588C58.5407 20.7339 59.3693 20.4743 60.2441 20.4743L61.6414 20.5608L61.5981 15.9372L60.4202 16.0237L58.6735 16.5025V16.5054Z" fill="white"/>
<path fill-rule="evenodd" clip-rule="evenodd" d="M81.7238 16.5948L92.6801 5.64572L89.7988 2.76712L78.8425 13.7162L81.7238 16.5948Z" fill="white"/>
<path fill-rule="evenodd" clip-rule="evenodd" d="M74.0384 12.2336V0.5H69.9792V12.2336H74.0384Z" fill="white"/>
<path fill-rule="evenodd" clip-rule="evenodd" d="M83.7303 21.129V25.1874H95.7375V21.129H83.7303Z" fill="white"/>
</g>
<defs>
<clipPath id="clip0_5654_138">
<rect width="111" height="40" fill="white" transform="translate(0 0.5)"/>
</clipPath>
</defs>
</svg>
