<svg xmlns="http://www.w3.org/2000/svg" viewBox="0 0 1207 438" width="1207" height="438"><defs></defs><g transform="matrix(1,0,0,1,0,0.114994241)">
<g>
	<g transform="matrix(1,0,0,1,603.5,219)">
		<g transform="matrix(1,0,0,1,-1.905319551,4.651699355)">
			<g>
				<g>
					<path d="M-473.300009,-222.666694C-486.233343,-220.800027 -503.033344,-210.800026 -508.633345,-201.733359 C-510.633345,-198.533359 -512.366678,-197.333359 -514.900012,-197.333359 C-526.500012,-197.200026 -542.76668,-189.466692 -552.233347,-179.466691 C-560.633347,-170.533357 -565.033348,-162.800024 -568.366681,-151.06669 C-570.766681,-142.266689 -571.700015,-140.800023 -580.233348,-132.800022 C-590.900016,-122.666688 -596.766683,-112.666688 -599.966683,-99.20002 C-602.633349,-87.60002 -601.566683,-73.066686 -597.300016,-62.400019 C-597.300016,-62.400019 -594.100016,-54.666685 -594.100016,-54.666685 C-594.100016,-54.666685 -597.433349,-45.733351 -597.433349,-45.733351 C-603.566683,-28.800017 -602.900016,-10.400016 -595.566682,5.066652 C-588.633349,19.866652 -569.833348,35.466653 -555.700014,38.13332 C-555.700014,38.13332 -551.16668,38.93332 -551.16668,38.93332 C-551.16668,38.93332 -551.16668,49.199987 -551.16668,49.199987 C-551.16668,72.133322 -541.700013,91.333323 -523.833345,104.933324 C-514.233345,112.266657 -506.633344,115.866657 -495.833344,118.133324 C-481.70001,121.199991 -464.500009,120.133324 -464.500009,116.133324 C-464.500009,114.933324 -465.700009,109.733324 -467.300009,104.666657 C-467.300009,104.666657 -470.100009,95.19999 -470.100009,95.19999 C-470.100009,95.19999 -481.70001,95.333323 -481.70001,95.333323 C-492.10001,95.333323 -494.10001,94.933323 -502.100011,90.933323 C-513.033345,85.599989 -521.966679,76.133322 -525.833345,65.599988 C-528.233346,59.466655 -528.633346,55.999988 -528.233346,47.333321 C-527.566679,34.399987 -523.700012,25.866653 -514.766678,17.733319 C-507.566678,11.066652 -502.500011,8.266652 -491.833344,5.333318 C-485.166677,3.466652 -483.433343,2.399985 -481.70001,-1.200015 C-478.90001,-6.533349 -480.10001,-11.600016 -484.90001,-15.200016 C-488.233344,-17.600016 -489.033344,-17.73335 -497.433344,-16.133349 C-513.966678,-13.066683 -530.900012,-1.600015 -541.16668,13.599985 C-543.033346,16.399986 -545.433346,18.666652 -546.36668,18.666652 C-550.100013,18.666652 -564.633347,10.266652 -568.633348,5.733318 C-581.833348,-9.333349 -582.500015,-30.266684 -570.366681,-48.266684 C-570.366681,-48.266684 -565.700014,-55.200018 -565.700014,-55.200018 C-565.700014,-55.200018 -568.500014,-58.533352 -568.500014,-58.533352 C-573.166681,-64.266685 -577.700015,-74.800019 -578.500015,-82.00002 C-580.766682,-99.20002 -568.766681,-118.800021 -553.033347,-124.000022 C-548.900013,-125.466688 -548.500013,-126.000022 -548.500013,-130.800022 C-548.500013,-154.133357 -531.433346,-174.400024 -512.500011,-173.733358 C-508.500011,-173.600024 -503.700011,-173.333358 -501.833344,-173.066691 C-499.166677,-172.800024 -497.966677,-173.733358 -495.166677,-178.933358 C-490.366677,-187.866692 -484.90001,-193.200025 -477.166676,-196.800026 C-462.500009,-203.733359 -443.700008,-198.666692 -436.633341,-186.000025 C-434.766674,-182.533358 -434.366674,-173.733358 -433.833341,-112.400021 C-433.833341,-112.400021 -433.166674,-42.800017 -433.166674,-42.800017 C-433.166674,-42.800017 -421.43334,-51.600018 -421.43334,-51.600018 C-421.43334,-51.600018 -409.833339,-60.266685 -409.833339,-60.266685 C-409.833339,-60.266685 -409.833339,-120.133355 -409.833339,-120.133355 C-409.833339,-185.600025 -409.833339,-185.733358 -402.100006,-192.266692 C-388.366672,-203.733359 -368.100004,-202.133359 -354.900003,-188.400025 C-352.233336,-185.600025 -349.433336,-181.733358 -348.633336,-179.866691 C-347.433336,-176.666691 -346.633336,-176.266691 -337.433336,-175.733358 C-318.366668,-174.533358 -304.366667,-164.000024 -299.166667,-146.933356 C-297.7,-142.266689 -296.5,-135.600022 -296.5,-132.133355 C-296.5,-126.133355 -296.366667,-126.000022 -290.1,-123.066688 C-272.233332,-114.800021 -261.566665,-93.066687 -266.366665,-74.533352 C-267.433332,-70.533352 -268.233332,-67.333352 -268.099999,-67.200019 C-267.966665,-67.066685 -263.433332,-65.333352 -258.099998,-63.333352 C-251.699998,-60.800018 -247.966664,-60.000018 -247.033331,-60.933352 C-246.366664,-61.600018 -244.766664,-66.800019 -243.699997,-72.533352 C-238.766664,-96.666687 -248.099998,-121.466688 -267.833332,-136.000022 C-273.033332,-139.866689 -275.166666,-142.266689 -275.166666,-144.400023 C-275.166666,-146.133356 -276.366666,-151.200023 -277.966666,-155.733357 C-285.433333,-177.733358 -303.033334,-193.333359 -325.033335,-197.466692 C-331.433335,-198.666692 -333.433335,-199.733359 -340.100002,-206.533359 C-360.76667,-227.066694 -392.100005,-229.333361 -415.03334,-211.866693 C-415.03334,-211.866693 -422.100007,-206.533359 -422.100007,-206.533359 C-422.100007,-206.533359 -425.700007,-209.866693 -425.700007,-209.866693 C-430.366674,-214.400026 -444.900008,-220.93336 -453.700008,-222.666694 C-461.566675,-224.13336 -463.300009,-224.13336 -473.300009,-222.666694 C-473.300009,-222.666694 -473.300009,-222.666694 -473.300009,-222.666694 Z" fill="#da291c"/>
				</g>
				<g>
					<path d="M-75.833322,-198.133359C-97.29999,-194.000025 -113.966657,-185.200025 -128.899991,-170.133357 C-147.033326,-151.86669 -155.166659,-132.933356 -156.233326,-105.866687 C-156.899993,-86.80002 -154.233326,-73.600019 -146.366659,-57.333352 C-139.166659,-42.666684 -121.166658,-25.066683 -105.69999,-17.466683 C-89.299989,-9.600016 -76.499989,-6.666682 -58.366654,-6.666682 C-33.299986,-6.666682 -14.233319,-11.733349 3.766682,-23.066683 C9.100016,-26.53335 14.566683,-30.13335 15.900016,-31.200017 C18.03335,-32.800017 18.300016,-36.53335 18.566683,-73.866686 C18.566683,-73.866686 18.83335,-114.666688 18.83335,-114.666688 C18.83335,-114.666688 -22.233319,-114.666688 -22.233319,-114.666688 C-22.233319,-114.666688 -63.299988,-114.666688 -63.299988,-114.666688 C-63.299988,-114.666688 -62.899988,-98.533354 -62.899988,-98.533354 C-62.899988,-98.533354 -62.499988,-82.40002 -62.499988,-82.40002 C-62.499988,-82.40002 -39.43332,-82.533353 -39.43332,-82.533353 C-39.43332,-82.533353 -16.499986,-82.666686 -16.499986,-82.666686 C-16.499986,-82.666686 -16.499986,-68.800019 -16.499986,-68.800019 C-16.499986,-52.933351 -17.033319,-52.000018 -29.966653,-46.133351 C-46.23332,-38.666684 -66.633322,-38.533351 -82.499989,-45.866684 C-91.166656,-49.733351 -103.29999,-60.800018 -108.233324,-69.200019 C-119.433324,-88.40002 -119.033324,-116.800021 -107.033324,-136.800022 C-95.566656,-155.86669 -73.033322,-165.466691 -47.566654,-162.400024 C-35.566653,-160.933357 -27.566653,-158.133357 -17.833319,-151.86669 C-13.433319,-149.06669 -9.299985,-146.66669 -8.766652,-146.800023 C-7.833318,-146.800023 11.500016,-171.200024 11.900016,-172.933358 C12.433349,-174.800024 -1.166651,-184.133358 -11.833319,-189.333358 C-17.699986,-192.133359 -26.499986,-195.333359 -31.43332,-196.533359 C-43.966654,-199.600026 -64.499988,-200.400026 -75.833322,-198.133359 C-75.833322,-198.133359 -75.833322,-198.133359 -75.833322,-198.133359 Z" fill="#da291c"/>
				</g>
				<g>
					<path d="M366.833368,-196.266692C366.433368,-195.866692 366.166701,-153.600023 366.166701,-102.400021 C366.166701,-102.400021 366.166701,-9.333349 366.166701,-9.333349 C366.166701,-9.333349 385.500035,-9.333349 385.500035,-9.333349 C385.500035,-9.333349 404.83337,-9.333349 404.83337,-9.333349 C404.83337,-9.333349 404.83337,-102.666687 404.83337,-102.666687 C404.83337,-102.666687 404.83337,-196.000025 404.83337,-196.000025 C404.83337,-196.000025 399.233369,-196.133359 399.233369,-196.133359 C372.566701,-196.933359 367.500034,-196.933359 366.833368,-196.266692 C366.833368,-196.266692 366.833368,-196.266692 366.833368,-196.266692 Z" fill="#da291c"/>
				</g>
				<g>
					<path d="M496.566708,-196.266692C494.433374,-195.866692 494.033374,-195.066692 488.166707,-179.333358 C486.166707,-174.266691 475.90004,-146.933356 465.233373,-118.666688 C454.566706,-90.40002 441.366705,-55.466685 436.033371,-40.933351 C430.566704,-26.266683 425.500037,-13.333349 424.833371,-11.866683 C423.500037,-9.466682 424.166704,-9.333349 443.233372,-9.333349 C443.233372,-9.333349 462.966706,-9.333349 462.966706,-9.333349 C462.966706,-9.333349 467.366706,-21.73335 467.366706,-21.73335 C469.766706,-28.400017 472.966707,-37.200017 474.433373,-41.066684 C474.433373,-41.066684 476.966707,-48.000018 476.966707,-48.000018 C476.966707,-48.000018 514.166709,-48.000018 514.166709,-48.000018 C514.166709,-48.000018 551.366711,-48.000018 551.366711,-48.000018 C551.366711,-48.000018 553.900044,-41.066684 553.900044,-41.066684 C555.366711,-37.200017 558.566711,-28.400017 560.966711,-21.73335 C560.966711,-21.73335 565.500045,-9.333349 565.500045,-9.333349 C565.500045,-9.333349 586.033379,-9.333349 586.033379,-9.333349 C604.966714,-9.333349 606.43338,-9.466682 605.500047,-11.733349 C604.966714,-12.933349 599.500047,-27.200017 593.500046,-43.333351 C587.366713,-59.466685 578.966712,-81.333353 574.833379,-92.00002 C570.700045,-102.666687 566.166711,-114.400021 564.833378,-118.000021 C563.500045,-121.733355 557.500044,-137.333356 551.500044,-152.66669 C545.500044,-168.133357 539.500043,-183.866692 538.033377,-187.600025 C536.56671,-191.466692 534.700043,-195.066692 533.76671,-195.600025 C532.300043,-196.400026 500.700041,-197.066692 496.566708,-196.266692 C496.566708,-196.266692 496.566708,-196.266692 496.566708,-196.266692 ZM515.500042,-148.933356C515.500042,-147.46669 532.300043,-99.866687 537.500043,-86.40002 C537.500043,-86.40002 539.500043,-81.333353 539.500043,-81.333353 C539.500043,-81.333353 514.300042,-81.333353 514.300042,-81.333353 C514.300042,-81.333353 488.966707,-81.333353 488.966707,-81.333353 C488.966707,-81.333353 493.100041,-92.40002 493.100041,-92.40002 C495.366708,-98.40002 500.833375,-114.133355 505.366708,-127.466689 C512.433375,-148.400023 515.500042,-154.933357 515.500042,-148.933356 C515.500042,-148.933356 515.500042,-148.933356 515.500042,-148.933356 Z" fill="#da291c"/>
				</g>
				<g>
					<path d="M272.70003,-153.200023C261.500029,-152.000023 250.433362,-146.66669 242.700028,-138.800022 C242.700028,-138.800022 236.833361,-132.933356 236.833361,-132.933356 C236.833361,-132.933356 236.833361,-142.400023 236.833361,-142.400023 C236.833361,-142.400023 236.833361,-152.000023 236.833361,-152.000023 C236.833361,-152.000023 218.166693,-152.000023 218.166693,-152.000023 C218.166693,-152.000023 199.500026,-152.000023 199.500026,-152.000023 C199.500026,-152.000023 199.500026,-80.666686 199.500026,-80.666686 C199.500026,-80.666686 199.500026,-9.333349 199.500026,-9.333349 C199.500026,-9.333349 218.166693,-9.333349 218.166693,-9.333349 C218.166693,-9.333349 236.700028,-9.333349 236.700028,-9.333349 C236.700028,-9.333349 237.100028,-54.400018 237.100028,-54.400018 C237.500028,-99.333354 237.500028,-99.333354 240.833361,-106.000021 C245.500028,-115.333355 252.700028,-120.133355 263.766696,-120.933355 C278.433363,-122.133355 289.10003,-115.200021 292.700031,-102.000021 C293.633364,-98.666687 294.166697,-80.400019 294.166697,-53.066685 C294.166697,-53.066685 294.166697,-9.333349 294.166697,-9.333349 C294.166697,-9.333349 312.833365,-9.333349 312.833365,-9.333349 C312.833365,-9.333349 331.500033,-9.333349 331.500033,-9.333349 C331.500033,-9.333349 331.500033,-56.400018 331.500033,-56.400018 C331.500033,-82.533353 330.833366,-107.200021 330.033366,-112.000021 C326.566699,-134.133356 312.166698,-150.26669 293.900031,-152.66669 C282.833363,-154.133357 281.366697,-154.26669 272.70003,-153.200023 C272.70003,-153.200023 272.70003,-153.200023 272.70003,-153.200023 Z" fill="#da291c"/>
				</g>
				<g>
					<path d="M86.166686,-150.26669C64.033352,-142.800023 47.500018,-124.800022 41.500017,-102.000021 C38.833351,-91.733353 38.833351,-69.600019 41.500017,-59.466685 C46.433351,-40.400017 59.233352,-24.13335 76.300019,-15.066683 C87.50002,-9.066682 97.90002,-6.666682 112.566688,-6.666682 C126.433355,-6.666682 137.766689,-9.066682 148.033356,-14.266683 C156.96669,-18.666683 167.633357,-26.93335 167.233357,-28.800017 C166.966691,-29.73335 162.833357,-34.666684 157.76669,-39.866684 C157.76669,-39.866684 148.700023,-49.466685 148.700023,-49.466685 C148.700023,-49.466685 141.100023,-44.800018 141.100023,-44.800018 C116.433355,-29.600017 87.633353,-36.266684 78.833353,-59.200018 C77.500019,-62.533352 76.833353,-65.733352 77.233353,-66.133352 C77.633353,-66.666685 99.90002,-66.933352 126.700022,-66.800019 C126.700022,-66.800019 175.233358,-66.533352 175.233358,-66.533352 C175.233358,-66.533352 176.166691,-72.133352 176.166691,-72.133352 C177.500025,-79.733353 175.766691,-96.266687 172.566691,-106.666687 C166.033357,-128.000022 151.100023,-143.733356 130.566689,-150.533356 C118.700021,-154.533357 98.166687,-154.400023 86.166686,-150.26669 C86.166686,-150.26669 86.166686,-150.26669 86.166686,-150.26669 ZM119.633355,-122.400022C128.833355,-119.733355 136.833356,-109.600021 140.033356,-97.066687 C140.033356,-97.066687 140.833356,-93.333353 140.833356,-93.333353 C140.833356,-93.333353 108.833354,-93.333353 108.833354,-93.333353 C108.833354,-93.333353 76.833353,-93.333353 76.833353,-93.333353 C76.833353,-93.333353 77.633353,-97.066687 77.633353,-97.066687 C80.433353,-108.400021 90.033353,-120.000022 98.833354,-122.533355 C104.700021,-124.266688 113.766688,-124.266688 119.633355,-122.400022 C119.633355,-122.400022 119.633355,-122.400022 119.633355,-122.400022 Z" fill="#da291c"/>
				</g>
				<g>
					<path d="M-482.633343,-150.933356C-488.10001,-150.133356 -490.50001,-145.733356 -490.633344,-136.666689 C-490.766677,-125.200022 -495.966677,-114.666688 -504.100011,-108.800021 C-511.300011,-103.733354 -520.900012,-100.133354 -527.566679,-100.00002 C-533.433346,-100.00002 -539.833346,-97.066687 -541.033346,-94.00002 C-542.76668,-89.20002 -541.833346,-83.866686 -538.366679,-80.400019 C-534.766679,-76.800019 -533.566679,-76.800019 -514.900012,-79.466686 C-509.433345,-80.266686 -508.633345,-80.000019 -507.166678,-77.333353 C-504.766678,-72.933352 -506.366678,-63.333352 -510.366678,-57.600018 C-512.233345,-54.800018 -513.833345,-50.933351 -513.833345,-48.933351 C-513.833345,-44.800018 -508.633345,-38.800017 -504.900011,-38.533351 C-496.633344,-38.000017 -492.766677,-40.533351 -487.70001,-49.733351 C-484.233343,-55.866685 -483.833343,-58.000018 -483.833343,-68.666686 C-483.833343,-77.866686 -484.50001,-82.00002 -486.50001,-86.533353 C-486.50001,-86.533353 -489.30001,-92.40002 -489.30001,-92.40002 C-489.30001,-92.40002 -482.766677,-98.933354 -482.766677,-98.933354 C-475.033343,-106.666687 -470.100009,-117.200021 -468.500009,-129.600022 C-467.433342,-138.800022 -468.633342,-147.06669 -471.300009,-148.66669 C-473.700009,-150.26669 -479.833343,-151.46669 -482.633343,-150.933356 C-482.633343,-150.933356 -482.633343,-150.933356 -482.633343,-150.933356 Z" fill="#da291c"/>
				</g>
				<g>
					<path d="M-372.500004,-129.733355C-377.033338,-126.666689 -377.833338,-125.333355 -377.833338,-120.533355 C-377.833338,-113.466688 -374.233338,-110.533354 -364.500004,-109.466688 C-359.700003,-108.933354 -353.56667,-107.466688 -350.76667,-106.133354 C-345.966669,-103.733354 -333.833335,-91.60002 -333.833335,-89.20002 C-333.833335,-88.533353 -330.900002,-88.00002 -327.300002,-88.00002 C-321.700001,-88.00002 -320.233335,-88.533353 -317.966668,-91.466687 C-316.366668,-93.466687 -315.166668,-95.866687 -315.166668,-96.933354 C-315.166668,-102.666687 -325.700002,-116.666688 -334.766669,-122.800022 C-346.633336,-131.066689 -365.56667,-134.533356 -372.500004,-129.733355 C-372.500004,-129.733355 -372.500004,-129.733355 -372.500004,-129.733355 Z" fill="#da291c"/>
				</g>
				<g>
					<path d="M-358.149571,-62.466685C-404.41624,-52.200018 -439.082908,-19.400016 -451.216242,25.533319 C-454.149576,36.599987 -454.682909,41.13332 -454.682909,58.333321 C-454.682909,82.066656 -452.149576,94.066656 -442.949575,112.999991 C-433.082908,133.533325 -418.282907,150.199993 -399.21624,162.599993 C-378.682905,175.933327 -360.416238,181.399994 -332.816236,182.599994 C-332.816236,182.599994 -314.816235,183.266661 -314.816235,183.266661 C-314.816235,183.266661 -300.816235,192.333328 -300.816235,192.333328 C-278.2829,206.733329 -274.549567,207.933329 -266.282899,203.666662 C-261.482899,201.266662 -259.749566,196.733328 -258.816232,183.666661 C-257.082899,158.599993 -257.882899,160.86666 -245.482898,147.933326 C-228.149564,129.799992 -218.949564,114.466657 -212.01623,91.666656 C-208.682896,80.599989 -208.282896,77.799989 -208.282896,57.666654 C-208.282896,37.53332 -208.682896,34.73332 -212.01623,23.666653 C-224.549564,-17.666683 -258.416232,-50.200018 -300.816235,-61.666685 C-314.149569,-65.133352 -343.74957,-65.666685 -358.149571,-62.466685 C-358.149571,-62.466685 -358.149571,-62.466685 -358.149571,-62.466685 ZM-266.949566,11.133319C-262.682899,14.466652 -262.282899,20.466653 -266.016233,24.199986 C-269.749566,27.93332 -281.4829,28.599986 -337.482903,28.066653 C-382.149572,27.666653 -387.349572,27.399986 -390.549573,25.266653 C-393.216239,23.533319 -394.149573,21.799986 -394.149573,18.599986 C-394.016239,8.333319 -394.682906,8.466652 -328.682903,8.333319 C-271.8829,8.333319 -270.416233,8.333319 -266.949566,11.133319 C-266.949566,11.133319 -266.949566,11.133319 -266.949566,11.133319 ZM-253.216232,55.266654C-249.216232,58.999988 -249.349565,63.666655 -253.482899,67.666655 C-253.482899,67.666655 -256.682899,70.999988 -256.682899,70.999988 C-256.682899,70.999988 -328.682903,70.999988 -328.682903,70.999988 C-380.816239,70.999988 -401.61624,70.599988 -404.149573,69.399988 C-410.149574,66.733322 -410.282907,56.733321 -404.549573,53.933321 C-402.41624,52.999988 -378.549572,52.466654 -328.949569,52.466654 C-328.949569,52.466654 -256.282899,52.333321 -256.282899,52.333321 C-256.282899,52.333321 -253.216232,55.266654 -253.216232,55.266654 C-253.216232,55.266654 -253.216232,55.266654 -253.216232,55.266654 ZM-279.616233,98.733323C-276.149567,101.533323 -275.4829,108.866657 -278.416233,111.799991 C-279.4829,112.999991 -282.816234,114.466657 -285.616234,114.999991 C-292.416234,116.599991 -367.882905,116.599991 -374.816238,114.999991 C-381.082905,113.533324 -383.482906,110.733324 -383.482906,104.866657 C-383.482906,96.333323 -383.082906,96.333323 -330.016236,96.333323 C-286.549567,96.333323 -282.149567,96.59999 -279.616233,98.733323 C-279.616233,98.733323 -279.616233,98.733323 -279.616233,98.733323 Z" fill="#da291c"/>
				</g>
				<g>
					<path d="M-147.166659,43.33332C-147.166659,43.33332 -147.166659,59.999988 -147.166659,59.999988 C-147.166659,59.999988 -120.499991,59.999988 -120.499991,59.999988 C-120.499991,59.999988 -93.833323,59.999988 -93.833323,59.999988 C-93.833323,59.999988 -93.833323,135.333325 -93.833323,135.333325 C-93.833323,135.333325 -93.833323,210.666662 -93.833323,210.666662 C-93.833323,210.666662 -74.499989,210.666662 -74.499989,210.666662 C-74.499989,210.666662 -55.166654,210.666662 -55.166654,210.666662 C-55.166654,210.666662 -55.166654,135.333325 -55.166654,135.333325 C-55.166654,135.333325 -55.166654,59.999988 -55.166654,59.999988 C-55.166654,59.999988 -27.83332,59.999988 -27.83332,59.999988 C-27.83332,59.999988 -0.499985,59.999988 -0.499985,59.999988 C-0.499985,59.999988 -0.499985,43.33332 -0.499985,43.33332 C-0.499985,43.33332 -0.499985,26.666653 -0.499985,26.666653 C-0.499985,26.666653 -73.833322,26.666653 -73.833322,26.666653 C-73.833322,26.666653 -147.166659,26.666653 -147.166659,26.666653 C-147.166659,26.666653 -147.166659,43.33332 -147.166659,43.33332 C-147.166659,43.33332 -147.166659,43.33332 -147.166659,43.33332 Z" fill="#da291c"/>
				</g>
				<g>
					<path d="M298.166698,53.999988C298.166698,53.999988 298.166698,70.666655 298.166698,70.666655 C298.166698,70.666655 289.50003,70.666655 289.50003,70.666655 C289.50003,70.666655 280.833363,70.666655 280.833363,70.666655 C280.833363,70.666655 280.833363,87.066656 280.833363,87.066656 C280.833363,87.066656 280.833363,103.466657 280.833363,103.466657 C280.833363,103.466657 289.366697,102.933323 289.366697,102.933323 C289.366697,102.933323 297.900031,102.39999 297.900031,102.39999 C297.900031,102.39999 298.433364,143.466659 298.433364,143.466659 C298.833364,183.466661 298.966698,184.933328 302.033364,191.599995 C305.633365,199.733328 313.233365,207.066662 322.033365,211.066662 C333.766699,216.533329 365.766701,214.133329 371.366701,207.599996 C373.233368,205.199995 365.766701,179.199994 363.366701,179.866661 C356.433367,181.733328 348.033367,181.599994 344.033367,179.333327 C336.300033,175.199994 335.500033,170.799994 335.500033,134.533325 C335.500033,134.533325 335.500033,102.533323 335.500033,102.533323 C335.500033,102.533323 352.5667,102.79999 352.5667,102.79999 C352.5667,102.79999 369.500035,102.933323 369.500035,102.933323 C369.500035,102.933323 369.900035,86.799989 369.900035,86.799989 C369.900035,86.799989 370.300035,70.666655 370.300035,70.666655 C370.300035,70.666655 352.833367,70.666655 352.833367,70.666655 C352.833367,70.666655 335.500033,70.666655 335.500033,70.666655 C335.500033,70.666655 335.500033,53.999988 335.500033,53.999988 C335.500033,53.999988 335.500033,37.33332 335.500033,37.33332 C335.500033,37.33332 316.833365,37.33332 316.833365,37.33332 C316.833365,37.33332 298.166698,37.33332 298.166698,37.33332 C298.166698,37.33332 298.166698,53.999988 298.166698,53.999988 C298.166698,53.999988 298.166698,53.999988 298.166698,53.999988 Z" fill="#da291c"/>
				</g>
				<g>
					<path d="M42.166684,69.466655C19.100016,73.333322 -1.833318,92.666656 -9.966652,117.599991 C-14.233319,130.666658 -14.366652,155.199993 -10.233319,166.933327 C-1.966651,190.399995 16.566683,207.199996 40.300017,212.799996 C51.233351,215.333329 73.766686,214.666663 84.166686,211.466662 C91.366687,209.199996 104.566687,201.599995 111.633354,195.599995 C111.633354,195.599995 115.900021,191.733328 115.900021,191.733328 C115.900021,191.733328 105.900021,181.733328 105.900021,181.733328 C105.900021,181.733328 95.90002,171.733327 95.90002,171.733327 C95.90002,171.733327 90.30002,175.733327 90.30002,175.733327 C81.90002,181.866661 72.566686,184.533328 60.166685,184.399994 C43.500018,184.133328 32.83335,177.866661 26.700017,164.66666 C20.83335,152.399993 16.833349,153.333326 72.700019,153.333326 C72.700019,153.333326 121.900022,153.333326 121.900022,153.333326 C121.900022,153.333326 122.833355,149.199993 122.833355,149.199993 C124.033355,143.599992 122.433355,124.933325 119.900022,115.999991 C114.166688,95.19999 99.10002,78.933322 79.100019,72.133322 C70.033352,68.933322 52.300018,67.733322 42.166684,69.466655 C42.166684,69.466655 42.166684,69.466655 42.166684,69.466655 ZM69.500019,101.19999C78.300019,105.333324 83.90002,112.799991 86.70002,124.266658 C86.70002,124.266658 87.50002,127.999991 87.50002,127.999991 C87.50002,127.999991 55.500018,127.999991 55.500018,127.999991 C55.500018,127.999991 23.500017,127.999991 23.500017,127.999991 C23.500017,127.999991 24.300017,124.266658 24.300017,124.266658 C28.166683,108.39999 40.300017,98.666657 56.033352,98.666657 C61.100018,98.666657 66.166685,99.733323 69.500019,101.19999 C69.500019,101.19999 69.500019,101.19999 69.500019,101.19999 Z" fill="#da291c"/>
				</g>
				<g>
					<path d="M132.833356,71.333322C132.833356,71.599988 136.966689,77.733322 141.900023,84.933323 C146.96669,92.133323 157.76669,107.733324 165.900024,119.733324 C165.900024,119.733324 180.833358,141.466659 180.833358,141.466659 C180.833358,141.466659 158.700024,173.06666 158.700024,173.06666 C146.433356,190.399995 135.233356,205.999995 133.766689,207.599996 C133.766689,207.599996 131.100022,210.666662 131.100022,210.666662 C131.100022,210.666662 151.900023,210.666662 151.900023,210.666662 C151.900023,210.666662 172.700024,210.666662 172.700024,210.666662 C172.700024,210.666662 186.966692,189.333328 186.966692,189.333328 C194.833359,177.599994 201.766692,168.133327 202.300026,168.26666 C203.366693,168.66666 227.766694,203.599995 230.300027,208.133329 C231.500027,210.399996 233.500027,210.666662 252.833362,210.666662 C252.833362,210.666662 274.166696,210.666662 274.166696,210.666662 C274.166696,210.666662 269.766696,204.799995 269.766696,204.799995 C264.433362,197.466662 227.23336,144.266659 225.766694,141.866659 C225.100027,140.666659 226.966694,136.933325 231.233361,131.066658 C234.833361,126.133325 243.900028,112.933324 251.500028,101.99999 C259.100029,90.933323 266.966696,79.599989 269.100029,76.666655 C269.100029,76.666655 272.966696,71.333322 272.966696,71.333322 C272.966696,71.333322 253.900029,70.933322 253.900029,70.933322 C237.233361,70.666655 234.700028,70.799988 232.833361,72.933322 C231.633361,74.266655 224.700027,84.399989 217.500027,95.59999 C217.500027,95.59999 204.433359,115.733324 204.433359,115.733324 C204.433359,115.733324 191.366692,95.866656 191.366692,95.866656 C184.166692,84.933323 177.633358,74.799989 176.833358,73.333322 C175.500024,70.799988 174.166691,70.666655 154.16669,70.666655 C142.433356,70.666655 132.833356,70.933322 132.833356,71.333322 C132.833356,71.333322 132.833356,71.333322 132.833356,71.333322 Z" fill="#da291c"/>
				</g>
			</g>
		</g>
	</g>
</g></g></svg>