<svg version="1.2" xmlns="http://www.w3.org/2000/svg" viewBox="60 293 903 387" width="903" height="387">
	<title>GenIA-Suite</title>
	<style>
		.s0 { fill: #ffffff } 
	</style>
	<g>
		<path class="s0" d="m173 309.6c-16.8 5.7-27.9 15.1-34.9 29.5l-4.2 8.7-7 2.2c-14.4 4.7-25.4 14.5-31.1 28-3 6.9-3.3 8.4-3.3 18.7l-0.1 11.2-4.7 3.7c-8.8 6.8-15.6 19.5-17.7 33-1.8 10.9 0.5 26.5 4.7 33.2 1.3 2.1 1.2 2.9-1.1 8.5-9.2 23.2-4.2 50.5 12.3 66.7 3.7 3.6 8.4 7.4 10.6 8.5 3.7 1.9 4.1 2.6 5.2 8.1 2.9 14.5 9.7 26.4 19.7 34.4 6.9 5.6 12.4 8.5 18.2 9.5 6.7 1.2 7.3 1.5 9.2 5.8 3.2 7.1 10.6 16.1 16.3 19.8 7.7 5.1 13.3 7 21.9 7.6 14.6 1 27.2-3.3 37.6-13l6.1-5.6 3.4 3.5c8.2 8.5 20.5 14.1 32.8 15.1 19 1.4 39.3-10 47.2-26.6 2.1-4.5 2.9-5.3 6.4-6.2 9.1-2.3 13.7-4.2 19.5-8.2 11.8-7.9 19.8-20.7 22.3-35.4l1.3-7.8 5.5-3.7c17-11.2 25.9-30.3 24.6-52.7-0.4-7-1.2-11.5-3.2-16.6-3.7-9.7-3.9-11-2.2-13.6 4.9-7.7 6.7-27.5 3.5-39.1-2.3-8.4-7.9-17.6-14.2-23.6l-5.6-5.3-0.4-7.7c-1.4-26.9-16.7-46.9-39.2-51.4-3-0.6-5.4-1.6-5.4-2.2 0-0.6-1.4-4-3-7.5-2.2-4.5-5.3-8.7-10.8-14-12.6-12.5-25.7-18.1-42.2-18.1-14.1 0-26.6 4.5-36 12.8l-4.5 3.9-4.5-3.7c-14.9-12.4-35.3-16.4-53-10.4zm32 19c7 3.1 13.4 9.7 15 15.3 0.7 2.6 2.1 104.1 1.4 104.1 0 0-6.6-6.6-14.7-14.8l-14.7-14.7v-16.1c0-14.7 0.2-16.2 2-17.9 3-2.7 5.4-9.9 4.7-14.1-1.5-9.2-9-15-18.4-14.2-6.7 0.6-10.1 2.9-13.2 9.1-3.5 7-2.4 12.8 3.5 18.4l4.4 4.3v19.7 19.7l22.9 23.1c12.6 12.6 23 23.7 23.1 24.5 0.1 0.8 0.2 4.1 0.1 7.2l-0.1 5.8h-18.9-18.9l-3.3 2.7c-1.9 1.6-5.6 4.9-8.4 7.5l-5 4.8h-13.7-13.6l-4.2-3.5c-7.7-6.5-16.7-6.5-23.5-0.1-11.5 10.9-1.4 31.5 14.2 29.1 3.3-0.5 5.4-1.6 8.4-4.6l3.9-3.9h18.6 18.6l7.2-7 7.3-7h15.6 15.7v16.3 16.2l-11.2 11.2-11.3 11.1-6.7 0.5c-10.5 0.7-15 5.2-15.6 15.3-0.4 5.4-0.1 7 2.2 10.7 7.8 13.4 28.7 8.1 29.2-7.3 0.2-4.6 0.5-5.2 6.8-11.1l6.6-6.1v22.1c0 20.4-0.2 22.5-2.1 26.6-3.1 6.7-11.7 14-18.7 16-16.3 4.8-30.6-3.1-36.2-20-1.2-3.6-2.8-7.1-3.5-7.9-0.7-0.7-4-1.6-7.2-1.9-19.4-2-32.4-15-35.3-35.2-1.6-11.2-1.4-10.9-7.9-13.9-14.9-6.9-23.1-20.4-23.1-38.1 0-8.5 1.9-16 6-23.8 1.6-3.1 3-6.4 3-7.2 0-0.8-1.3-3.4-3-5.7-8.5-12.2-7.5-33.2 2-44.1 5-5.6 8.5-7.1 15.5-6.5 4.8 0.4 6.1 1 9.5 4.3 3.4 3.3 4 4.5 4 8 0 5.4 3.7 12.4 7.9 15.2 6.7 4.5 17.3 2.2 21.8-4.6 8-11.9-1-27.1-16.1-27.1-1.4 0-2.6-0.4-2.6-0.9 0-0.4-1.9-2.9-4.1-5.5-4.5-5.1-11.1-8.9-17.3-10l-3.8-0.7 0.4-6.7c0.5-8.2 3.5-14.8 9.4-20.2 5.7-5.2 10.5-7.5 19.9-9.5 4.4-0.9 8.5-2.1 9.1-2.8 0.6-0.7 1.8-3.9 2.8-7.2 3.7-12.2 9.3-19.9 18.3-25.2 10.4-6 24.1-6.7 35.3-1.7zm78.1-1.6c15.1 5.1 20.9 11.5 30.4 33.7 1.5 3.4 2.1 3.6 14.6 6.2 10.8 2.3 18.6 9.3 23 21 1.9 4.9 2.1 7 1.6 17.2-0.3 6.4-0.2 12.1 0.2 12.6 0.3 0.6 2.4 1.9 4.6 3.1 5.6 2.8 12.1 9.7 15.3 16.2 2.4 4.9 2.7 6.7 2.7 15.5 0 9.5-0.2 10.4-3.9 18.2l-3.8 8.1 3.1 8.1c4.9 12.8 4.4 14.1-5.4 14.1-7.2 0-9.2-0.9-16.4-7.5-5.6-5.2-6.1-6.1-6.1-9.9-0.1-13.9-13.1-22.1-25.2-16-8.7 4.4-11.3 18.3-4.9 25.8 2.4 2.8 9.1 5.6 13.6 5.6 3.7 0 4.7 0.6 12 8.1 10.4 10.5 13.7 12.1 25.8 11.8 8.8-0.2 9.2-0.1 9.5 2 0.6 3.6-5.3 14.7-10.5 19.9-2.6 2.6-7.5 6.1-10.8 7.7l-6 3-0.7 7.9c-1.2 12.6-4 19.4-11 26.5-4.7 4.8-12.8 9-18.6 9.8-2.9 0.3-4.7-0.2-8-2.4-4.5-3-4.7-3.3-5.7-10.6-1.6-11.5-14.5-18.2-24.5-12.6-7.3 4.1-9.9 13.2-6.1 21.4 3 6.5 9.1 10.5 16 10.5 1.8 0 4 1.3 6.5 3.9l3.8 3.9-2.3 4.7c-4.7 9.4-13.9 14.5-26.3 14.5-11.2 0-22.8-7.7-27.7-18.4-1.7-3.7-1.9-7-1.9-37.6v-33.5l16.4 0.5c16.3 0.5 16.4 0.5 18.5 3.1 4.6 6 14.2 7.7 20.2 3.6 12.8-8.6 9-28.5-5.9-31.3-4.5-0.9-10.2 1-13.2 4.1-2.3 2.5-2.5 2.5-19.2 2.5h-16.8v-25.5-25.5h16.5 16.5l18.1-17.8c17.5-17.1 18.3-17.7 23.1-18.5 9.3-1.4 14-5.8 15.4-14.5 0.9-5.5-0.9-10.1-5.7-14.8-3.8-3.7-4.3-3.9-10.4-3.9-4.9 0-7 0.5-9.1 2.1-4.8 3.5-6.7 6.9-7.3 13.2l-0.6 6-15.7 15.1-15.7 15.1h-12.6-12.5v-16.3-16.3l20.5-20.2c17.6-17.4 20.9-20.2 23.5-20.2 4.3 0 10.4-3.3 13.1-7.1 5-7 2.8-19-4.4-24.1-4.6-3.3-13.9-3.2-18.5 0-5 3.6-7.5 9.4-7 16.1l0.5 5.6-13.9 13.5-13.8 13.4v-27.7c0-22 0.3-28.4 1.4-30.5 6-11.4 26.3-17.3 41.7-12.2z"/>
		<path class="s0" d="m473 337.9c-16.3 2.3-28.3 8.3-40 20.1-9.3 9.3-13.4 15.9-17.2 28-2 6.5-2.3 9.5-2.3 23 0 13.2 0.3 16.7 2.3 23.5 3.6 12.5 8.6 21 17.3 29.6 9 9 17.6 13.7 31.4 17 7.9 1.9 10.8 2.1 24.5 1.6 14.8-0.6 28.7-3 38.3-6.6l2.7-1.1v-35.8-35.9l-25.5-0.2-25.5-0.2v11.5 11.6h11.9 11.9l0.4 12.2c0.5 17.2 0.4 17.8-5.7 19.6-7 2-22.2 1.2-29.7-1.7-16.3-6.3-25.8-24.8-24.5-48.1 0.9-15 5.4-25.7 14.5-34.2 6.1-5.7 9.3-7.4 17.9-9.4 11.9-2.8 29.9-0.7 43 5.2 3.1 1.3 5.8 2.2 6.1 1.9 0.2-0.2 0.7-5.6 1-11.9l0.5-11.4-4.9-2.2c-11.3-5-35-8-48.4-6.1z"/>
		<path class="s0" d="m781 340.8c0 0.4-0.1 31.4-0.2 69l-0.3 68.2h14.3 14.2v-69-69.1l-14 0.2c-7.7 0-14 0.4-14 0.7z"/>
		<path class="s0" d="m861.6 365.3c-4.8 13.8-12.6 36-17.3 49.2-4.6 13.2-11.3 32.1-14.8 42-3.4 9.9-6.6 18.8-7 19.8-0.7 1.6 0.2 1.7 14.5 1.5l15.3-0.3 5.2-16.5 5.1-16.5h25.4 25.3l5.4 16.7 5.4 16.8h15.4 15.4l-6.4-18.3c-3.5-10-10-28.6-14.5-41.2-4.5-12.7-10.1-28.4-12.5-35-2.3-6.6-6.8-18.9-9.9-27.4-3.1-8.5-5.6-15.5-5.6-15.7 0-0.2-8-0.4-17.7-0.4h-17.8zm27.8 4.8c0.3 1.7 4 13.5 8.1 26.2 4.1 12.7 7.5 23.5 7.5 23.9 0 0.4-7.6 0.8-17 0.8-9.3 0-17-0.3-17-0.7 0-0.4 2.7-9 5.9-19.3 3.3-10.2 7-22 8.3-26.2 1.3-4.3 2.6-7.8 2.9-7.8 0.4 0 0.9 1.4 1.3 3.1z"/>
		<path class="s0" d="m588.1 372.1c-24.4 3.1-41.1 24.4-41.1 52.4 0.1 29.6 14.3 48.9 40.6 55.1 12.9 3 32 1 45.7-4.8l4.7-2v-11.4c0-6.3-0.2-11.4-0.5-11.4-0.3 0-2.2 0.8-4.3 1.9-11.8 6-28.8 8.4-39 5.6-9.9-2.8-19.1-12.5-19.2-20.2v-2.3l33.3-0.2 33.2-0.3-0.1-15c0-16.7-1.3-21.8-7.8-31.2-8.3-12.1-26.4-18.5-45.5-16.2zm16.7 21.2c6.8 2.5 12.2 11.1 12.2 19.4v2.3h-21-21v-2.8c0-3.6 4.1-12.1 7.1-14.9 5.4-4.9 15.2-6.7 22.7-4z"/>
		<path class="s0" d="m716 372.1c-9.3 0.9-20.5 6-24.9 11.3-2.4 2.8-3.1 1.7-3.1-4.4v-6h-13.5-13.5l-0.2 52.5-0.3 52.5h13.8 13.7v-35.9-36l3.3-2.5c6.3-4.7 11.7-6.9 18.5-7.3 8.5-0.6 12.7 1.5 16 7.7 2.2 4.3 2.2 5.1 2.2 39.2v34.8h14.1 14l-0.3-40.8c-0.3-39.5-0.4-40.9-2.6-46.3-2.6-6.6-8.9-13.3-14.8-16-5.4-2.5-14.3-3.6-22.4-2.8z"/>
		<path class="s0" d="m686.6 506c-6.1 1.9-10.6 8.5-10.6 15.7 0 9.9 11.1 17.4 21.3 14.3 7.4-2.1 11.7-7.7 11.7-15.2 0-11.2-10.7-18.2-22.4-14.8z"/>
		<path class="s0" d="m466 513.6c-26.4 4.8-40.5 20.8-38.7 44.1 1.1 14.2 9.1 26 22.7 33.2 3.5 1.9 13.1 5.8 21.3 8.7 8.2 2.9 16.7 6.5 18.9 7.9 4.8 3.2 7.2 8.3 6.5 14.1-0.6 5.8-3.7 9.7-9.9 12.5-4.6 2-6.8 2.3-16.3 2.2-12.7-0.1-22.3-2.3-34.5-7.8-4.2-1.9-8-3.5-8.4-3.5-0.3 0-0.6 5.8-0.6 13v13l4 2c8.8 4.5 21.7 7.2 37.1 7.7 17.5 0.6 25.5-0.5 35.6-5.2 9.3-4.3 16.4-11 20.5-19.3 6.1-12.3 4.9-29.2-2.7-40.9-6.3-9.5-16.1-15.4-38.9-23.2-19.7-6.7-24.6-10.8-24.6-20.5 0-9.9 9.4-14.5 27.1-13.3 9.6 0.7 24.3 4.6 30.8 8.3 2.4 1.3 4.5 2.3 4.6 2.2 0.1-0.2 0.5-6.3 0.8-13.6l0.6-13.2-3.1-1.6c-7.3-3.8-21.9-6.6-36.3-6.9-7.7-0.2-15.1-0.2-16.5 0.1z"/>
		<path class="s0" d="m747 537v13h-9.5-9.5v11.7 11.8l9.5-0.3 9.5-0.4v31.9c0 34.2 0.5 38.2 5.3 45.3 5.6 8.4 18 12.6 34.1 11.7 5-0.2 11.2-1 13.9-1.7l4.7-1.2v-12.5-12.6l-3.7 0.7c-14.8 2.4-20.1 1.6-23.4-3.8-1.7-2.9-1.9-5.2-1.9-30.4v-27.3l14 0.3 14 0.3v-9.5c0-5.2 0.3-10.5 0.6-11.8l0.6-2.2h-14.6-14.6v-13-13h-14.5-14.5z"/>
		<path class="s0" d="m854 549.6c-12.5 3.3-24 11.8-30.2 22.4-6.8 11.7-9.6 32.8-6.4 47.8 4.5 21.6 19.7 36.3 42.1 40.8 13.9 2.9 34.2 0.9 47-4.6l4.5-1.9v-11.7c0-10.7-0.1-11.6-1.7-10.8-1 0.4-5.6 2.1-10.3 3.8-7.6 2.7-9.8 3-20 3.1-9.9 0-12.2-0.3-16.5-2.3-6.5-3-11.2-7.5-14.1-13.7-4.4-9.2-7-8.5 32.1-8.5 32 0 34.6-0.1 35.3-1.8 1.5-3.6 0.7-24.5-1.2-30.7-4-13.1-10.7-22.1-20.5-27.4-10.6-5.6-28.3-7.6-40.1-4.5zm21.3 21.5c7.7 2.1 12.5 8.3 14.3 18.1l0.6 3.8h-22.2-22.2l0.7-3.7c1.6-8.8 7.5-16.3 14.3-18.3 3.9-1.2 10.1-1.2 14.5 0.1z"/>
		<path class="s0" d="m548 587.7c0 21.4 0.5 40.6 1.1 44.3 1.9 12.3 7.6 20.8 16.9 25.5 15.6 7.8 37.7 5.2 50.9-6.2 2.2-1.8 4.2-3.3 4.5-3.3 0.3 0 0.6 2.7 0.6 6v6h14.5 14.5v-55-55h-15-15v37.9 37.9l-5.3 3.6c-6.5 4.5-13.2 6.6-20.7 6.6-6.3 0-10.6-2.2-14.4-7.3-2-2.8-2.1-4.1-2.4-40.8l-0.3-37.9h-14.9-15z"/>
		<path class="s0" d="m678 605v55h14.5 14.5v-55-55h-14.5-14.5z"/>
	</g>
</svg>