<svg version="1.2" xmlns="http://www.w3.org/2000/svg" viewBox="0 0 1557 620" width="1557" height="620">
	<title>brain-solid-svgrepo-com</title>
	<style>
		.s0 { fill: #da291c } 
	</style>
	<g id="Layer 1">
		<path class="s0" d="m233 7c-47.75 0-86.43 34.67-96.09 79.69-58.3 10.45-103.91 59.08-103.91 120.31 0 6.15 0.68 11.62 1.56 17.19-16.11 23.73-26.56 51.66-26.56 82.81 0 44.92 22.36 82.71 53.91 110.16-2.25 8.88-3.91 17.77-3.91 27.34 0 61.82 50.68 112.5 112.5 112.5 0.68 0 0.98 0 1.56 0 14.55 28.22 39.75 50 73.44 50 24.41 0 46.58-10.25 62.5-26.56 15.92 16.31 38.09 26.56 62.5 26.56 33.69 0 58.89-21.78 73.44-50 0.58 0 0.88 0 1.56 0 58.69 0 106.84-45.7 111.72-103.13h0.78c0-1.56-0.68-3.12-0.78-4.68 0.1-1.57 0.78-3.13 0.78-4.69 0-9.28-3.32-17.19-5.47-25.78 32.42-27.54 55.47-66.02 55.47-111.72 0-31.15-10.45-59.08-26.56-82.81 0.88-5.57 1.56-11.04 1.56-17.19 0-61.23-45.61-109.86-103.91-120.31-9.66-45.02-48.34-79.69-96.09-79.69-29.98 0-56.64 13.96-75 35.16-18.36-21.2-45.02-35.16-75-35.16zm0 50c27.93 0 50 22.07 50 50v50c0 41.7-33.3 75-75 75v50c28.32 0 54-9.77 75-25.78v263.28c0 21-16.5 37.5-37.5 37.5-18.65 0-33.59-12.89-36.72-30.47l-4.69-24.22-24.21 3.91c-4.4 0.68-7.13 0.78-9.38 0.78-34.77 0-62.5-27.73-62.5-62.5 0-7.71 1.27-14.94 3.91-21.87 0.19-0.59 0.58-0.98 0.78-1.57 7.71-19.24 24.51-33.3 45.31-37.5l-10.16-49.22c-26.07 5.28-48.73 19.14-64.84 39.07-15.72-17.58-25-40.82-25-66.41 0-23.44 8.01-44.34 21.88-61.72l7.81-9.37-2.35-12.5c-1.36-5.86-2.34-11.04-2.34-16.41 0-41.7 33.3-75 75-75h25v-25c0-27.93 22.07-50 50-50zm150 0c27.93 0 50 22.07 50 50v25h25c41.7 0 75 33.3 75 75 0 5.37-0.98 10.55-2.34 16.41l-2.35 12.5 7.82 9.37c13.86 17.38 21.87 38.28 21.87 61.72 0 29.98-12.79 56.74-33.59 75-17.09-15.14-38.87-25-63.28-25-23.64 0-44.93 8.4-61.72 22.66l32.03 38.28c8.1-6.84 18.06-10.94 29.69-10.94 24.12 0 43.35 18.07 46.09 41.41-2.05 32.91-28.32 58.59-61.72 58.59-2.25 0-4.98-0.1-9.37-0.78l-24.22-3.91-4.69 24.22c-3.13 17.58-18.07 30.47-36.72 30.47-21 0-37.5-16.5-37.5-37.5v-263.28c21 16.01 46.68 25.78 75 25.78v-50c-41.7 0-75-33.3-75-75v-50c0-27.93 22.07-50 50-50z"/>
		<path id="GenIA Suite" class="s0" aria-label="GenIA
Suite"  d="m850.7 180.9v85.1q-11.8 14.3-33.5 22.2-21.7 7.7-48 7.7-27.7 0-48.7-12-20.8-12.1-32.2-35.1-11.3-23-11.6-54.1v-14.5q0-31.9 10.7-55.2 10.9-23.5 31.1-35.8 20.3-12.4 47.6-12.4 37.9 0 59.3 18.2 21.4 18 25.3 52.5h-42.7q-3-18.3-13.1-26.8-9.9-8.5-27.5-8.5-22.4 0-34.1 16.9-11.8 16.8-11.9 50.1v13.6q0 33.5 12.7 50.7 12.8 17.1 37.4 17.1 24.8 0 35.3-10.5v-36.8h-40v-32.4zm-7.9 0v85.1q-11.9 14.3-33.5 22.2-21.7 7.7-48.1 7.7-27.7 0-48.6-12-20.8-12.1-32.2-35.1-11.3-23-11.6-54.1v-14.5q0-31.9 10.7-55.2 10.8-23.5 31-35.8 20.4-12.4 47.6-12.4 38 0 59.4 18.2 21.3 18 25.3 52.5h-42.8q-2.9-18.3-13-26.8-10-8.5-27.5-8.5-22.5 0-34.2 16.9-11.7 16.8-11.8 50.1v13.6q0 33.5 12.7 50.7 12.7 17.1 37.4 17.1 24.7 0 35.3-10.5v-36.8h-40v-32.4zm121.3 115q-34.9 0-56.8-21.4-21.9-21.3-21.9-56.9v-4.1q0-23.9 9.3-42.7 9.2-18.9 26-29 17-10.2 38.7-10.2 32.5 0 51.1 20.5 18.8 20.5 18.8 58.1v17.3h-100.9q2 15.5 12.3 24.9 10.4 9.4 26.2 9.4 24.4 0 38.2-17.7l20.8 23.3q-9.5 13.4-25.8 21.1-16.2 7.4-36 7.4zm-4.8-130q-12.6 0-20.5 8.4-7.8 8.5-10 24.4h58.9v-3.4q-0.3-14.1-7.6-21.7-7.4-7.7-20.8-7.7zm-3.1 130q-34.9 0-56.9-21.4-21.8-21.3-21.8-56.9v-4.1q0-23.9 9.2-42.7 9.3-18.9 26.1-29 17-10.2 38.7-10.2 32.5 0 51.1 20.5 18.8 20.5 18.8 58.1v17.3h-101q2.1 15.5 12.3 24.9 10.4 9.4 26.3 9.4 24.4 0 38.2-17.7l20.8 23.3q-9.5 13.4-25.8 21.1-16.2 7.4-36 7.4zm-4.9-130q-12.5 0-20.5 8.4-7.7 8.5-9.9 24.4h58.9v-3.4q-0.3-14.1-7.7-21.7-7.3-7.7-20.8-7.7zm110-31.4h39.8l1.3 18.3q17-21.2 45.6-21.2 25.2 0 37.5 14.8 12.3 14.8 12.6 44.2v102.4h-42.4v-101.4q0-13.4-5.8-19.4-5.9-6.2-19.5-6.2-17.9 0-26.8 15.2v111.8h-42.3zm-7.9 0h39.8l1.3 18.3q17-21.2 45.6-21.2 25.2 0 37.5 14.8 12.3 14.8 12.6 44.2v102.4h-42.4v-101.4q0-13.4-5.8-19.5-5.9-6.1-19.5-6.1-17.9 0-26.8 15.2v111.8h-42.3zm234.3-54.8v213.3h-44v-213.3zm-7.9 0v213.3h-43.9v-213.3zm194.3 213.3l-14.8-44h-77l-14.7 44h-46.7l79.4-213.3h40.7l79.9 213.3zm-53.5-159.4l-26.5 79.9h53.3zm45.6 159.3l-14.8-43.9h-77.1l-14.6 43.9h-46.8l79.4-213.3h40.8l79.8 213.3zm-53.5-159.3l-26.5 79.8h53.3zm-620.2 353.4q0-12.4-8.8-19-8.8-6.8-31.6-14.1-22.9-7.5-36.2-14.7-36.3-19.6-36.3-52.8 0-17.3 9.6-30.8 9.8-13.6 28-21.2 18.3-7.7 41-7.7 22.9 0 40.7 8.4 17.9 8.2 27.7 23.3 10 15.1 10 34.3h-44q0-14.7-9.2-22.7-9.2-8.2-25.9-8.2-16.1 0-25.1 6.8-8.9 6.8-8.9 17.9 0 10.4 10.4 17.4 10.6 7.1 30.9 13.2 37.5 11.3 54.7 28 17.1 16.7 17.1 41.6 0 27.7-21 43.5-20.9 15.7-56.3 15.7-24.7 0-44.9-8.9-20.2-9.1-30.9-24.8-10.5-15.7-10.5-36.3h44.1q0 35.3 42.2 35.3 15.6 0 24.4-6.3 8.8-6.5 8.8-17.9zm-7.9 0q0-12.4-8.8-19-8.8-6.8-31.6-14.1-22.9-7.5-36.2-14.7-36.3-19.6-36.3-52.8 0-17.3 9.6-30.8 9.8-13.6 28-21.2 18.3-7.7 41-7.7 22.9 0 40.7 8.4 17.9 8.2 27.7 23.3 10 15.1 10 34.3h-44q0-14.7-9.2-22.7-9.2-8.2-25.9-8.2-16.1 0-25.1 6.8-8.9 6.8-8.9 17.9 0 10.4 10.4 17.4 10.5 7.1 30.9 13.2 37.5 11.3 54.6 28 17.2 16.7 17.2 41.6 0 27.7-21 43.5-20.9 15.7-56.4 15.7-24.6 0-44.8-8.9-20.2-9.1-30.9-24.8-10.5-15.7-10.5-36.3h44.1q0 35.3 42.1 35.3 15.7 0 24.5-6.3 8.8-6.5 8.8-17.9zm183.6 56l-1.2-16.2q-15.6 19.1-43.3 19.1-25.5 0-39-14.7-13.3-14.6-13.6-42.9v-103.8h42.3v102.4q0 24.7 22.6 24.7 21.5 0 29.6-14.9v-112.2h42.5v158.5zm-7.9 0l-1.2-16.2q-15.7 19.1-43.4 19.1-25.5 0-38.9-14.7-13.4-14.6-13.7-42.9v-103.8h42.4v102.4q0 24.7 22.5 24.7 21.6 0 29.6-14.9v-112.2h42.5v158.5zm131.5-158.5v158.5h-42.5v-158.5zm-45-41.1q0-9.5 6.3-15.6 6.5-6.2 17.5-6.2 10.8 0 17.3 6.2 6.4 6.1 6.4 15.6 0 9.7-6.6 15.9-6.4 6.1-17.1 6.1-10.7 0-17.3-6.1-6.5-6.2-6.5-15.9zm37.1 41.1v158.5h-42.5v-158.5zm-45-41.1q0-9.5 6.3-15.6 6.5-6.2 17.5-6.2 10.8 0 17.3 6.2 6.4 6.1 6.4 15.6 0 9.7-6.6 15.9-6.4 6.1-17.1 6.1-10.7 0-17.3-6.1-6.5-6.2-6.5-15.9zm104.6 2.1h42.3v39h27.1v31h-27.1v79.1q0 8.8 3.4 12.6 3.4 3.8 12.9 3.8 7 0 12.4-1v32.1q-12.4 3.8-25.6 3.8-44.5 0-45.4-45v-85.4h-23.1v-31h23.1zm-7.9 0h42.3v38.9h27.1v31.1h-27.1v79.1q0 8.8 3.4 12.6 3.4 3.8 12.9 3.8 7 0 12.4-1v32q-12.4 3.9-25.6 3.9-44.5 0-45.4-45v-85.4h-23.2v-31.1h23.2zm182.5 200.4q-34.9 0-56.8-21.4-21.9-21.4-21.9-56.9v-4.2q0-23.8 9.3-42.6 9.2-18.9 26-29 17-10.2 38.7-10.2 32.5 0 51.1 20.5 18.8 20.5 18.8 58.1v17.3h-100.9q2 15.5 12.3 24.9 10.4 9.4 26.2 9.4 24.4 0 38.2-17.7l20.8 23.3q-9.5 13.4-25.8 21-16.2 7.5-36 7.5zm-4.8-130.1q-12.6 0-20.5 8.5-7.8 8.5-10 24.4h58.9v-3.4q-0.3-14.1-7.6-21.7-7.4-7.8-20.8-7.8zm-3.1 130.1q-34.9 0-56.8-21.4-21.9-21.4-21.9-56.9v-4.2q0-23.8 9.3-42.6 9.2-18.9 26-29 17-10.2 38.7-10.2 32.5 0 51.1 20.5 18.8 20.5 18.8 58.1v17.3h-101q2.1 15.5 12.4 24.9 10.4 9.4 26.2 9.4 24.4 0 38.2-17.7l20.8 23.3q-9.5 13.4-25.8 21-16.2 7.5-36 7.5zm-4.8-130.1q-12.6 0-20.6 8.5-7.7 8.5-9.9 24.4h58.9v-3.4q-0.3-14.1-7.6-21.7-7.4-7.8-20.8-7.8z"/>
	</g>
</svg>