<svg xmlns="http://www.w3.org/2000/svg" viewBox="0 0 1207 438" width="1207" height="438"><defs></defs><g transform="matrix(1,0,0,1,0.30447521,0.114992719)">
<g>
	<g transform="matrix(1,0,0,1,603.5,219)">
		<g transform="matrix(1,0,0,1,0.195556867,-0.114992719)">
			<g>
				<g>
					<g>
						<g>
							<g>
								<g>
									<path d="M-475.705353,-217.899994C-488.638672,-216.03334 -505.43869,-206.03334 -511.038666,-196.96666 C-513.038666,-193.766663 -514.772034,-192.566666 -517.305359,-192.566666 C-528.905334,-192.433334 -545.171997,-184.699997 -554.638672,-174.699997 C-563.038696,-165.766663 -567.43866,-158.033325 -570.772034,-146.300003 C-573.171997,-137.5 -574.105347,-136.033325 -582.638672,-128.033325 C-593.305359,-117.899994 -599.171997,-107.899994 -602.372009,-94.433327 C-605.038696,-82.833328 -603.972046,-68.299995 -599.705322,-57.633327 C-599.705322,-57.633327 -596.505371,-49.89999 -596.505371,-49.89999 C-596.505371,-49.89999 -599.838684,-40.96666 -599.838684,-40.96666 C-605.972046,-24.033323 -605.305359,-5.633323 -597.972046,9.833345 C-591.038696,24.633345 -572.238708,40.233345 -558.105347,42.900013 C-558.105347,42.900013 -553.572021,43.700012 -553.572021,43.700012 C-553.572021,43.700012 -553.572021,53.966679 -553.572021,53.966679 C-553.572021,76.900017 -544.105347,96.100014 -526.238708,109.70002 C-516.638672,117.033348 -509.038666,120.633347 -498.238678,122.900017 C-484.105347,125.966682 -466.905334,124.900017 -466.905334,120.900017 C-466.905334,119.70002 -468.105347,114.500015 -469.705353,109.43335 C-469.705353,109.43335 -472.505341,99.966682 -472.505341,99.966682 C-472.505341,99.966682 -484.105347,100.100014 -484.105347,100.100014 C-494.505341,100.100014 -496.505341,99.70002 -504.505341,95.70002 C-515.43866,90.366684 -524.372009,80.900017 -528.238708,70.366684 C-530.638672,64.233349 -531.038696,60.766682 -530.638672,52.100014 C-529.971985,39.166679 -526.105347,30.633347 -517.171997,22.500011 C-509.972015,15.833345 -504.905334,13.033345 -494.238678,10.100011 C-487.572021,8.233345 -485.838684,7.166678 -484.105347,3.566678 C-481.305359,-1.766656 -482.505341,-6.833323 -487.305359,-10.433323 C-490.638672,-12.833323 -491.43869,-12.966658 -499.838684,-11.366655 C-516.372009,-8.29999 -533.305359,3.166678 -543.572021,18.366678 C-545.43866,21.166679 -547.838684,23.433346 -548.772034,23.433346 C-552.505371,23.433346 -567.038696,15.033345 -571.038696,10.500011 C-584.238708,-4.566656 -584.905334,-25.49999 -572.772034,-43.499992 C-572.772034,-43.499992 -568.105347,-50.433327 -568.105347,-50.433327 C-568.105347,-50.433327 -570.905334,-53.766659 -570.905334,-53.766659 C-575.572021,-59.499992 -580.105347,-70.033325 -580.905334,-77.23333 C-583.171997,-94.433327 -571.171997,-114.033325 -555.43866,-119.23333 C-551.305359,-120.699997 -550.905334,-121.23333 -550.905334,-126.033325 C-550.905334,-149.366669 -533.838684,-169.633331 -514.905334,-168.96666 C-510.905334,-168.833328 -506.105347,-168.566666 -504.238678,-168.300003 C-501.572021,-168.033325 -500.372009,-168.96666 -497.572021,-174.166672 C-492.772003,-183.100006 -487.305359,-188.433334 -479.572021,-192.03334 C-464.905334,-198.96666 -446.105347,-193.899994 -439.038666,-181.233337 C-437.171997,-177.766663 -436.772003,-168.96666 -436.238678,-107.633331 C-436.238678,-107.633331 -435.572021,-38.033325 -435.572021,-38.033325 C-435.572021,-38.033325 -423.838684,-46.833324 -423.838684,-46.833324 C-423.838684,-46.833324 -412.238678,-55.499992 -412.238678,-55.499992 C-412.238678,-55.499992 -412.238678,-115.366661 -412.238678,-115.366661 C-412.238678,-180.833328 -412.238678,-180.96666 -404.505341,-187.5 C-390.772003,-198.96666 -370.505341,-197.366669 -357.305328,-183.633331 C-354.638672,-180.833328 -351.838684,-176.96666 -351.038666,-175.099991 C-349.838684,-171.899994 -349.038666,-171.5 -339.838684,-170.96666 C-320.772003,-169.766663 -306.772003,-159.233337 -301.571991,-142.166656 C-300.105347,-137.5 -298.905334,-130.833328 -298.905334,-127.366669 C-298.905334,-121.366661 -298.772003,-121.23333 -292.505341,-118.299995 C-274.638672,-110.033325 -263.971985,-88.299995 -268.772003,-69.766663 C-269.838654,-65.766663 -270.638672,-62.566658 -270.505341,-62.433327 C-270.372009,-62.299995 -265.838654,-60.566658 -260.505341,-58.566658 C-254.105331,-56.033325 -250.371994,-55.233326 -249.43866,-56.16666 C-248.772003,-56.833324 -247.171997,-62.033325 -246.105331,-67.766663 C-241.171997,-91.899994 -250.505325,-116.699997 -270.238678,-131.233322 C-275.43866,-135.099991 -277.571991,-137.5 -277.571991,-139.633331 C-277.571991,-141.366669 -278.772003,-146.433334 -280.372009,-150.96666 C-287.838654,-172.96666 -305.43866,-188.566666 -327.43866,-192.699997 C-333.838684,-193.899994 -335.838684,-194.96666 -342.505341,-201.766663 C-363.171997,-222.300003 -394.505341,-224.566666 -417.43866,-207.100006 C-417.43866,-207.100006 -424.505341,-201.766663 -424.505341,-201.766663 C-424.505341,-201.766663 -428.105347,-205.100006 -428.105347,-205.100006 C-432.772003,-209.633331 -447.305328,-216.166672 -456.105347,-217.899994 C-463.972015,-219.366669 -465.705353,-219.366669 -475.705353,-217.899994 C-475.705353,-217.899994 -475.705353,-217.899994 -475.705353,-217.899994 C-475.705353,-217.899994 -475.705353,-217.899994 -475.705353,-217.899994 Z" fill="#ffffff"/>
								</g>
							</g>
							<g>
								<g>
									<path d="M-78.238655,-193.366669C-99.705322,-189.233337 -116.371994,-180.433334 -131.305328,-165.366669 C-149.43866,-147.099991 -157.571991,-128.166656 -158.638657,-101.099991 C-159.305328,-82.033325 -156.638657,-68.833328 -148.771988,-52.566658 C-141.571991,-37.89999 -123.571991,-20.29999 -108.105324,-12.699989 C-91.705322,-4.833323 -78.905327,-1.899989 -60.771988,-1.899989 C-35.705322,-1.899989 -16.638654,-6.966656 1.361347,-18.29999 C6.694681,-21.766657 12.161348,-25.366657 13.494681,-26.433325 C15.628016,-28.033325 15.894682,-31.766659 16.161348,-69.099991 C16.161348,-69.099991 16.428015,-109.899994 16.428015,-109.899994 C16.428015,-109.899994 -24.638653,-109.899994 -24.638653,-109.899994 C-24.638653,-109.899994 -65.705322,-109.899994 -65.705322,-109.899994 C-65.705322,-109.899994 -65.305321,-93.766663 -65.305321,-93.766663 C-65.305321,-93.766663 -64.905323,-77.633324 -64.905323,-77.633324 C-64.905323,-77.633324 -41.838654,-77.766663 -41.838654,-77.766663 C-41.838654,-77.766663 -18.905321,-77.899994 -18.905321,-77.899994 C-18.905321,-77.899994 -18.905321,-64.033325 -18.905321,-64.033325 C-18.905321,-48.166656 -19.438654,-47.233326 -32.371988,-41.366657 C-48.638653,-33.89999 -69.038658,-33.766659 -84.905327,-41.099991 C-93.571991,-44.96666 -105.705322,-56.033325 -110.638657,-64.433327 C-121.838661,-83.633324 -121.43866,-112.033325 -109.43866,-132.033325 C-97.971992,-151.099991 -75.43866,-160.699997 -49.971989,-157.633331 C-37.971989,-156.166656 -29.971987,-153.366669 -20.238653,-147.099991 C-15.838654,-144.300003 -11.705319,-141.899994 -11.171987,-142.033325 C-10.238653,-142.033325 9.094682,-166.433334 9.494681,-168.166672 C10.028014,-170.033325 -3.571985,-179.366669 -14.238653,-184.566666 C-20.10532,-187.366669 -28.905321,-190.566666 -33.838654,-191.766663 C-46.37199,-194.833328 -66.905319,-195.633331 -78.238655,-193.366669 C-78.238655,-193.366669 -78.238655,-193.366669 -78.238655,-193.366669 C-78.238655,-193.366669 -78.238655,-193.366669 -78.238655,-193.366669 Z" fill="#ffffff"/>
								</g>
							</g>
							<g>
								<g>
									<path d="M364.42804,-191.5C364.028046,-191.100006 363.761353,-148.833328 363.761353,-97.633331 C363.761353,-97.633331 363.761353,-4.566656 363.761353,-4.566656 C363.761353,-4.566656 383.094696,-4.566656 383.094696,-4.566656 C383.094696,-4.566656 402.42804,-4.566656 402.42804,-4.566656 C402.42804,-4.566656 402.42804,-97.899994 402.42804,-97.899994 C402.42804,-97.899994 402.42804,-191.233337 402.42804,-191.233337 C402.42804,-191.233337 396.828033,-191.366669 396.828033,-191.366669 C370.161377,-192.166672 365.094696,-192.166672 364.42804,-191.5 C364.42804,-191.5 364.42804,-191.5 364.42804,-191.5 C364.42804,-191.5 364.42804,-191.5 364.42804,-191.5 Z" fill="#ffffff"/>
								</g>
							</g>
							<g>
								<g>
									<path d="M494.161377,-191.5C492.028046,-191.100006 491.628052,-190.300003 485.761383,-174.566666 C483.761383,-169.5 473.49472,-142.166656 462.828033,-113.899994 C452.161377,-85.633324 438.961365,-50.699993 433.628052,-36.166656 C428.161377,-21.49999 423.094696,-8.566656 422.42804,-7.09999 C421.094696,-4.699989 421.761383,-4.566656 440.828033,-4.566656 C440.828033,-4.566656 460.561371,-4.566656 460.561371,-4.566656 C460.561371,-4.566656 464.961365,-16.966658 464.961365,-16.966658 C467.361359,-23.633324 470.561371,-32.433323 472.028046,-36.299992 C472.028046,-36.299992 474.561371,-43.233326 474.561371,-43.233326 C474.561371,-43.233326 511.761353,-43.233326 511.761353,-43.233326 C511.761353,-43.233326 548.961365,-43.233326 548.961365,-43.233326 C548.961365,-43.233326 551.49469,-36.299992 551.49469,-36.299992 C552.961365,-32.433323 556.161377,-23.633324 558.561401,-16.966658 C558.561401,-16.966658 563.094727,-4.566656 563.094727,-4.566656 C563.094727,-4.566656 583.628052,-4.566656 583.628052,-4.566656 C602.561401,-4.566656 604.028015,-4.699989 603.094727,-6.966656 C602.561401,-8.166656 597.094727,-22.433325 591.094727,-38.566658 C584.961365,-54.699993 576.561401,-76.566658 572.42804,-87.23333 C568.294739,-97.899994 563.761353,-109.633331 562.42804,-113.23333 C561.094727,-116.96666 555.094727,-132.566666 549.094727,-147.899994 C543.094727,-163.366669 537.094727,-179.100006 535.628052,-182.833328 C534.161377,-186.699997 532.294739,-190.300003 531.361389,-190.833328 C529.894714,-191.633331 498.294708,-192.300003 494.161377,-191.5 C494.161377,-191.5 494.161377,-191.5 494.161377,-191.5 C494.161377,-191.5 494.161377,-191.5 494.161377,-191.5 ZM513.094727,-144.166656C513.094727,-142.699997 529.894714,-95.099991 535.094727,-81.633324 C535.094727,-81.633324 537.094727,-76.566658 537.094727,-76.566658 C537.094727,-76.566658 511.894714,-76.566658 511.894714,-76.566658 C511.894714,-76.566658 486.561371,-76.566658 486.561371,-76.566658 C486.561371,-76.566658 490.694702,-87.633324 490.694702,-87.633324 C492.961365,-93.633324 498.42804,-109.366661 502.961365,-122.699997 C510.028015,-143.633331 513.094727,-150.166656 513.094727,-144.166656 C513.094727,-144.166656 513.094727,-144.166656 513.094727,-144.166656 C513.094727,-144.166656 513.094727,-144.166656 513.094727,-144.166656 Z" fill="#ffffff"/>
								</g>
							</g>
							<g>
								<g>
									<path d="M270.294708,-148.433334C259.094696,-147.233337 248.02803,-141.899994 240.294693,-134.033325 C240.294693,-134.033325 234.428024,-128.166656 234.428024,-128.166656 C234.428024,-128.166656 234.428024,-137.633331 234.428024,-137.633331 C234.428024,-137.633331 234.428024,-147.233337 234.428024,-147.233337 C234.428024,-147.233337 215.761353,-147.233337 215.761353,-147.233337 C215.761353,-147.233337 197.094696,-147.233337 197.094696,-147.233337 C197.094696,-147.233337 197.094696,-75.899994 197.094696,-75.899994 C197.094696,-75.899994 197.094696,-4.566656 197.094696,-4.566656 C197.094696,-4.566656 215.761353,-4.566656 215.761353,-4.566656 C215.761353,-4.566656 234.294693,-4.566656 234.294693,-4.566656 C234.294693,-4.566656 234.694687,-49.633324 234.694687,-49.633324 C235.094696,-94.566658 235.094696,-94.566658 238.428024,-101.23333 C243.094696,-110.566666 250.294693,-115.366661 261.361359,-116.166664 C276.028015,-117.366661 286.694702,-110.433327 290.294708,-97.23333 C291.228027,-93.899994 291.761353,-75.633324 291.761353,-48.299992 C291.761353,-48.299992 291.761353,-4.566656 291.761353,-4.566656 C291.761353,-4.566656 310.42804,-4.566656 310.42804,-4.566656 C310.42804,-4.566656 329.094696,-4.566656 329.094696,-4.566656 C329.094696,-4.566656 329.094696,-51.633324 329.094696,-51.633324 C329.094696,-77.766663 328.42804,-102.433327 327.628021,-107.23333 C324.161377,-129.366669 309.761353,-145.5 291.49469,-147.899994 C280.42804,-149.366669 278.961365,-149.5 270.294708,-148.433334 C270.294708,-148.433334 270.294708,-148.433334 270.294708,-148.433334 C270.294708,-148.433334 270.294708,-148.433334 270.294708,-148.433334 Z" fill="#ffffff"/>
								</g>
							</g>
							<g>
								<g>
									<path d="M83.761353,-145.5C61.628021,-138.033325 45.094685,-120.033325 39.094681,-97.23333 C36.428017,-86.96666 36.428017,-64.833328 39.094681,-54.699993 C44.028015,-35.633324 56.828018,-19.366657 73.894684,-10.29999 C85.094688,-4.299989 95.494682,-1.899989 110.161354,-1.899989 C124.028023,-1.899989 135.361359,-4.299989 145.628021,-9.49999 C154.561356,-13.89999 165.228027,-22.166656 164.828018,-24.033323 C164.561356,-24.966658 160.428024,-29.89999 155.361359,-35.099991 C155.361359,-35.099991 146.294693,-44.699993 146.294693,-44.699993 C146.294693,-44.699993 138.694687,-40.033325 138.694687,-40.033325 C114.028023,-24.833324 85.22802,-31.499992 76.428017,-54.433327 C75.094681,-57.766659 74.428017,-60.96666 74.828018,-61.366661 C75.22802,-61.899994 97.494682,-62.166656 124.294685,-62.033325 C124.294685,-62.033325 172.828018,-61.766663 172.828018,-61.766663 C172.828018,-61.766663 173.761353,-67.366661 173.761353,-67.366661 C175.094696,-74.96666 173.361359,-91.499992 170.161362,-101.899994 C163.628021,-123.233322 148.694687,-138.96666 128.161362,-145.766663 C116.294685,-149.766663 95.761353,-149.633331 83.761353,-145.5 C83.761353,-145.5 83.761353,-145.5 83.761353,-145.5 C83.761353,-145.5 83.761353,-145.5 83.761353,-145.5 ZM117.22802,-117.633331C126.428024,-114.96666 134.428024,-104.833328 137.628021,-92.299995 C137.628021,-92.299995 138.428024,-88.566658 138.428024,-88.566658 C138.428024,-88.566658 106.428017,-88.566658 106.428017,-88.566658 C106.428017,-88.566658 74.428017,-88.566658 74.428017,-88.566658 C74.428017,-88.566658 75.22802,-92.299995 75.22802,-92.299995 C78.028015,-103.633331 87.628021,-115.23333 96.428017,-117.766663 C102.294685,-119.499992 111.361351,-119.499992 117.22802,-117.633331 C117.22802,-117.633331 117.22802,-117.633331 117.22802,-117.633331 C117.22802,-117.633331 117.22802,-117.633331 117.22802,-117.633331 Z" fill="#ffffff"/>
								</g>
							</g>
							<g>
								<g>
									<path d="M-485.038666,-146.166656C-490.505341,-145.366669 -492.905334,-140.96666 -493.038666,-131.899994 C-493.171997,-120.433327 -498.372009,-109.899994 -506.505341,-104.033325 C-513.705353,-98.96666 -523.305359,-95.366661 -529.971985,-95.23333 C-535.838684,-95.23333 -542.238708,-92.299995 -543.43866,-89.23333 C-545.171997,-84.433327 -544.238708,-79.099991 -540.772034,-75.633324 C-537.171997,-72.033325 -535.971985,-72.033325 -517.305359,-74.699989 C-511.838684,-75.499992 -511.038666,-75.233322 -509.572021,-72.566658 C-507.172028,-68.166656 -508.772003,-58.566658 -512.772003,-52.833324 C-514.638672,-50.033325 -516.238708,-46.166656 -516.238708,-44.166656 C-516.238708,-40.033325 -511.038666,-34.033325 -507.305359,-33.766659 C-499.038666,-33.233322 -495.171997,-35.766659 -490.105347,-44.96666 C-486.638672,-51.099991 -486.238678,-53.233326 -486.238678,-63.899994 C-486.238678,-73.099991 -486.905334,-77.23333 -488.905334,-81.766663 C-488.905334,-81.766663 -491.705353,-87.633324 -491.705353,-87.633324 C-491.705353,-87.633324 -485.171997,-94.166664 -485.171997,-94.166664 C-477.43869,-101.899994 -472.505341,-112.433327 -470.905334,-124.833328 C-469.838684,-134.033325 -471.038666,-142.300003 -473.705353,-143.899994 C-476.105347,-145.5 -482.238678,-146.699997 -485.038666,-146.166656 C-485.038666,-146.166656 -485.038666,-146.166656 -485.038666,-146.166656 C-485.038666,-146.166656 -485.038666,-146.166656 -485.038666,-146.166656 Z" fill="#ffffff"/>
								</g>
							</g>
							<g>
								<g>
									<path d="M-374.905334,-124.96666C-379.43866,-121.899994 -380.238678,-120.566666 -380.238678,-115.766663 C-380.238678,-108.699997 -376.638672,-105.766663 -366.905334,-104.699997 C-362.105347,-104.166664 -355.972015,-102.699997 -353.171997,-101.366661 C-348.372009,-98.96666 -336.238678,-86.833328 -336.238678,-84.433327 C-336.238678,-83.766663 -333.305328,-83.23333 -329.705322,-83.23333 C-324.105347,-83.23333 -322.638672,-83.766663 -320.372009,-86.699997 C-318.772003,-88.699997 -317.571991,-91.099991 -317.571991,-92.166664 C-317.571991,-97.899994 -328.105347,-111.899994 -337.171997,-118.033325 C-349.038666,-126.300003 -367.972015,-129.766663 -374.905334,-124.96666 C-374.905334,-124.96666 -374.905334,-124.96666 -374.905334,-124.96666 C-374.905334,-124.96666 -374.905334,-124.96666 -374.905334,-124.96666 Z" fill="#ffffff"/>
								</g>
							</g>
							<g>
								<g>
									<path d="M-360.554901,-57.699993C-406.821564,-47.433327 -441.488251,-14.633324 -453.621582,30.300013 C-456.554901,41.36668 -457.088257,45.900013 -457.088257,63.100014 C-457.088257,86.833351 -454.554901,98.833351 -445.354919,117.766685 C-435.488251,138.300018 -420.688232,154.96669 -401.621582,167.366684 C-381.088226,180.700027 -362.821564,186.166687 -335.221558,187.366684 C-335.221558,187.366684 -317.221558,188.033356 -317.221558,188.033356 C-317.221558,188.033356 -303.221558,197.100021 -303.221558,197.100021 C-280.688232,211.500015 -276.954895,212.700027 -268.688232,208.43335 C-263.888245,206.033356 -262.154907,201.500015 -261.221558,188.43335 C-259.48822,163.366684 -260.288239,165.633347 -247.888229,152.700012 C-230.554901,134.566681 -221.354904,119.233353 -214.42157,96.43335 C-211.088226,85.366684 -210.688232,82.566681 -210.688232,62.433346 C-210.688232,42.300014 -211.088226,39.500011 -214.42157,28.433346 C-226.954895,-12.89999 -260.821564,-45.433327 -303.221558,-56.89999 C-316.554901,-60.366661 -346.154907,-60.899994 -360.554901,-57.699993 C-360.554901,-57.699993 -360.554901,-57.699993 -360.554901,-57.699993 C-360.554901,-57.699993 -360.554901,-57.699993 -360.554901,-57.699993 ZM-269.354889,15.900012C-265.088226,19.233345 -264.688232,25.233347 -268.42157,28.966679 C-272.154907,32.700012 -283.888245,33.366678 -339.888245,32.833345 C-384.554901,32.433346 -389.754913,32.166679 -392.954895,30.033346 C-395.621582,28.300013 -396.554901,26.566679 -396.554901,23.366678 C-396.42157,13.100012 -397.088226,13.233345 -331.088226,13.100012 C-274.288239,13.100012 -272.821564,13.100012 -269.354889,15.900012 C-269.354889,15.900012 -269.354889,15.900012 -269.354889,15.900012 C-269.354889,15.900012 -269.354889,15.900012 -269.354889,15.900012 ZM-255.621567,60.033348C-251.621567,63.766682 -251.754898,68.43335 -255.888229,72.43335 C-255.888229,72.43335 -259.088226,75.766678 -259.088226,75.766678 C-259.088226,75.766678 -331.088226,75.766678 -331.088226,75.766678 C-383.221588,75.766678 -404.021576,75.366684 -406.554901,74.166679 C-412.554901,71.500015 -412.688232,61.500015 -406.954895,58.700016 C-404.821564,57.766682 -380.954895,57.233349 -331.354889,57.233349 C-331.354889,57.233349 -258.688232,57.100014 -258.688232,57.100014 C-258.688232,57.100014 -255.621567,60.033348 -255.621567,60.033348 C-255.621567,60.033348 -255.621567,60.033348 -255.621567,60.033348 C-255.621567,60.033348 -255.621567,60.033348 -255.621567,60.033348 ZM-282.021576,103.500015C-278.554901,106.300018 -277.888245,113.633347 -280.821564,116.566681 C-281.888245,117.766685 -285.221558,119.233353 -288.021576,119.766685 C-294.821564,121.366684 -370.288239,121.366684 -377.221558,119.766685 C-383.488251,118.300018 -385.888245,115.500015 -385.888245,109.633347 C-385.888245,101.100014 -385.488251,101.100014 -332.42157,101.100014 C-288.954895,101.100014 -284.554901,101.366684 -282.021576,103.500015 C-282.021576,103.500015 -282.021576,103.500015 -282.021576,103.500015 C-282.021576,103.500015 -282.021576,103.500015 -282.021576,103.500015 Z" fill="#ffffff"/>
								</g>
							</g>
							<g>
								<g>
									<path d="M-149.571991,48.100014C-149.571991,48.100014 -149.571991,64.766682 -149.571991,64.766682 C-149.571991,64.766682 -122.905327,64.766682 -122.905327,64.766682 C-122.905327,64.766682 -96.238655,64.766682 -96.238655,64.766682 C-96.238655,64.766682 -96.238655,140.100021 -96.238655,140.100021 C-96.238655,140.100021 -96.238655,215.43335 -96.238655,215.43335 C-96.238655,215.43335 -76.905327,215.43335 -76.905327,215.43335 C-76.905327,215.43335 -57.571987,215.43335 -57.571987,215.43335 C-57.571987,215.43335 -57.571987,140.100021 -57.571987,140.100021 C-57.571987,140.100021 -57.571987,64.766682 -57.571987,64.766682 C-57.571987,64.766682 -30.238655,64.766682 -30.238655,64.766682 C-30.238655,64.766682 -2.905319,64.766682 -2.905319,64.766682 C-2.905319,64.766682 -2.905319,48.100014 -2.905319,48.100014 C-2.905319,48.100014 -2.905319,31.433346 -2.905319,31.433346 C-2.905319,31.433346 -76.238655,31.433346 -76.238655,31.433346 C-76.238655,31.433346 -149.571991,31.433346 -149.571991,31.433346 C-149.571991,31.433346 -149.571991,48.100014 -149.571991,48.100014 C-149.571991,48.100014 -149.571991,48.100014 -149.571991,48.100014 C-149.571991,48.100014 -149.571991,48.100014 -149.571991,48.100014 Z" fill="#ffffff"/>
								</g>
							</g>
							<g>
								<g>
									<path d="M295.761353,58.766682C295.761353,58.766682 295.761353,75.43335 295.761353,75.43335 C295.761353,75.43335 287.094696,75.43335 287.094696,75.43335 C287.094696,75.43335 278.42804,75.43335 278.42804,75.43335 C278.42804,75.43335 278.42804,91.833351 278.42804,91.833351 C278.42804,91.833351 278.42804,108.233353 278.42804,108.233353 C278.42804,108.233353 286.961365,107.70002 286.961365,107.70002 C286.961365,107.70002 295.49469,107.166679 295.49469,107.166679 C295.49469,107.166679 296.028015,148.233353 296.028015,148.233353 C296.42804,188.233353 296.561371,189.700027 299.628021,196.366684 C303.228027,204.500015 310.828033,211.833359 319.628021,215.833359 C331.361359,221.300018 363.361359,218.900024 368.961365,212.366684 C370.828033,209.96669 363.361359,183.96669 360.961365,184.633347 C354.028046,186.500015 345.628021,186.366684 341.628021,184.100021 C333.894684,179.96669 333.094696,175.566681 333.094696,139.300018 C333.094696,139.300018 333.094696,107.300018 333.094696,107.300018 C333.094696,107.300018 350.161377,107.566681 350.161377,107.566681 C350.161377,107.566681 367.094696,107.70002 367.094696,107.70002 C367.094696,107.70002 367.49469,91.566681 367.49469,91.566681 C367.49469,91.566681 367.894714,75.43335 367.894714,75.43335 C367.894714,75.43335 350.42804,75.43335 350.42804,75.43335 C350.42804,75.43335 333.094696,75.43335 333.094696,75.43335 C333.094696,75.43335 333.094696,58.766682 333.094696,58.766682 C333.094696,58.766682 333.094696,42.100014 333.094696,42.100014 C333.094696,42.100014 314.42804,42.100014 314.42804,42.100014 C314.42804,42.100014 295.761353,42.100014 295.761353,42.100014 C295.761353,42.100014 295.761353,58.766682 295.761353,58.766682 C295.761353,58.766682 295.761353,58.766682 295.761353,58.766682 C295.761353,58.766682 295.761353,58.766682 295.761353,58.766682 Z" fill="#ffffff"/>
								</g>
							</g>
							<g>
								<g>
									<path d="M39.761349,74.233345C16.694681,78.100014 -4.238652,97.43335 -12.371986,122.366684 C-16.638654,135.43335 -16.771986,159.96669 -12.638654,171.700027 C-4.371985,195.166687 14.161348,211.96669 37.894684,217.566696 C48.828018,220.100021 71.361351,219.43335 81.761353,216.233353 C88.961349,213.96669 102.161354,206.366684 109.22802,200.366684 C109.22802,200.366684 113.49469,196.500015 113.49469,196.500015 C113.49469,196.500015 103.49469,186.500015 103.49469,186.500015 C103.49469,186.500015 93.494682,176.500015 93.494682,176.500015 C93.494682,176.500015 87.894684,180.500015 87.894684,180.500015 C79.494682,186.633347 70.161354,189.300018 57.761349,189.166687 C41.094685,188.900024 30.428017,182.633347 24.294683,169.43335 C18.428015,157.166687 14.428015,158.100021 70.294685,158.100021 C70.294685,158.100021 119.49469,158.100021 119.49469,158.100021 C119.49469,158.100021 120.428024,153.96669 120.428024,153.96669 C121.628021,148.366684 120.028023,129.70002 117.49469,120.766685 C111.761353,99.966682 96.694687,83.700012 76.694687,76.900017 C67.628021,73.700012 49.894684,72.500015 39.761349,74.233345 C39.761349,74.233345 39.761349,74.233345 39.761349,74.233345 C39.761349,74.233345 39.761349,74.233345 39.761349,74.233345 ZM67.094681,105.966682C75.894684,110.100014 81.494682,117.566681 84.294685,129.033348 C84.294685,129.033348 85.094688,132.766685 85.094688,132.766685 C85.094688,132.766685 53.094685,132.766685 53.094685,132.766685 C53.094685,132.766685 21.094683,132.766685 21.094683,132.766685 C21.094683,132.766685 21.894682,129.033348 21.894682,129.033348 C25.761349,113.166679 37.894684,103.43335 53.628017,103.43335 C58.694683,103.43335 63.761353,104.500015 67.094681,105.966682 C67.094681,105.966682 67.094681,105.966682 67.094681,105.966682 C67.094681,105.966682 67.094681,105.966682 67.094681,105.966682 Z" fill="#ffffff"/>
								</g>
							</g>
							<g>
								<g>
									<path d="M130.428024,76.100014C130.428024,76.366684 134.561356,82.500015 139.49469,89.70002 C144.561356,96.900017 155.361359,112.500015 163.49469,124.500015 C163.49469,124.500015 178.428024,146.233353 178.428024,146.233353 C178.428024,146.233353 156.294693,177.833359 156.294693,177.833359 C144.028015,195.166687 132.828018,210.766693 131.361359,212.366684 C131.361359,212.366684 128.694687,215.43335 128.694687,215.43335 C128.694687,215.43335 149.49469,215.43335 149.49469,215.43335 C149.49469,215.43335 170.294693,215.43335 170.294693,215.43335 C170.294693,215.43335 184.561356,194.100021 184.561356,194.100021 C192.428024,182.366684 199.361359,172.900024 199.894699,173.033356 C200.961365,173.43335 225.361359,208.366684 227.894699,212.900024 C229.094696,215.166687 231.094696,215.43335 250.428024,215.43335 C250.428024,215.43335 271.761353,215.43335 271.761353,215.43335 C271.761353,215.43335 267.361359,209.566681 267.361359,209.566681 C262.028015,202.233353 224.828018,149.033356 223.361359,146.633347 C222.694687,145.43335 224.561356,141.700012 228.828033,135.833344 C232.428024,130.900017 241.49469,117.70002 249.094696,106.766685 C256.694702,95.70002 264.561371,84.366684 266.694702,81.43335 C266.694702,81.43335 270.561371,76.100014 270.561371,76.100014 C270.561371,76.100014 251.49469,75.700012 251.49469,75.700012 C234.828033,75.43335 232.294693,75.566681 230.428024,77.700012 C229.228027,79.033348 222.294693,89.166679 215.094696,100.366684 C215.094696,100.366684 202.02803,120.500015 202.02803,120.500015 C202.02803,120.500015 188.961365,100.633347 188.961365,100.633347 C181.761353,89.70002 175.228027,79.566681 174.428024,78.100014 C173.094696,75.566681 171.761353,75.43335 151.761353,75.43335 C140.028015,75.43335 130.428024,75.700012 130.428024,76.100014 C130.428024,76.100014 130.428024,76.100014 130.428024,76.100014 C130.428024,76.100014 130.428024,76.100014 130.428024,76.100014 Z" fill="#ffffff"/>
								</g>
							</g>
						</g>
					</g>
				</g>
			</g>
		</g>
	</g>
</g></g></svg>